<svg width="29" height="21" viewBox="0 0 29 21" fill="none" xmlns="http://www.w3.org/2000/svg">
<path d="M2.83333 20.2876L6.66667 13.6209C4.83333 13.6209 3.26389 12.9682 1.95833 11.6626C0.652778 10.357 0 8.7876 0 6.95426C0 5.12093 0.652778 3.55149 1.95833 2.24593C3.26389 0.940375 4.83333 0.287598 6.66667 0.287598C8.5 0.287598 10.0694 0.940375 11.375 2.24593C12.6806 3.55149 13.3333 5.12093 13.3333 6.95426C13.3333 7.59315 13.2569 8.18343 13.1042 8.7251C12.9514 9.26676 12.7222 9.7876 12.4167 10.2876L6.66667 20.2876H2.83333ZM17.8333 20.2876L21.6667 13.6209C19.8333 13.6209 18.2639 12.9682 16.9583 11.6626C15.6528 10.357 15 8.7876 15 6.95426C15 5.12093 15.6528 3.55149 16.9583 2.24593C18.2639 0.940375 19.8333 0.287598 21.6667 0.287598C23.5 0.287598 25.0694 0.940375 26.375 2.24593C27.6806 3.55149 28.3333 5.12093 28.3333 6.95426C28.3333 7.59315 28.2569 8.18343 28.1042 8.7251C27.9514 9.26676 27.7222 9.7876 27.4167 10.2876L21.6667 20.2876H17.8333ZM6.66667 9.45426C7.36111 9.45426 7.95139 9.21121 8.4375 8.7251C8.92361 8.23899 9.16667 7.64871 9.16667 6.95426C9.16667 6.25982 8.92361 5.66954 8.4375 5.18343C7.95139 4.69732 7.36111 4.45426 6.66667 4.45426C5.97222 4.45426 5.38194 4.69732 4.89583 5.18343C4.40972 5.66954 4.16667 6.25982 4.16667 6.95426C4.16667 7.64871 4.40972 8.23899 4.89583 8.7251C5.38194 9.21121 5.97222 9.45426 6.66667 9.45426ZM21.6667 9.45426C22.3611 9.45426 22.9514 9.21121 23.4375 8.7251C23.9236 8.23899 24.1667 7.64871 24.1667 6.95426C24.1667 6.25982 23.9236 5.66954 23.4375 5.18343C22.9514 4.69732 22.3611 4.45426 21.6667 4.45426C20.9722 4.45426 20.3819 4.69732 19.8958 5.18343C19.4097 5.66954 19.1667 6.25982 19.1667 6.95426C19.1667 7.64871 19.4097 8.23899 19.8958 8.7251C20.3819 9.21121 20.9722 9.45426 21.6667 9.45426Z" fill="white"/>
</svg>
