<svg width="56" height="56" viewBox="0 0 56 56" fill="none" xmlns="http://www.w3.org/2000/svg">
<path d="M16.3333 39.6667H21V28H16.3333V39.6667ZM35 39.6667H39.6667V16.3333H35V39.6667ZM25.6667 39.6667H30.3333V32.6667H25.6667V39.6667ZM25.6667 28H30.3333V23.3333H25.6667V28ZM11.6667 49C10.3833 49 9.28472 48.5431 8.37083 47.6292C7.45694 46.7153 7 45.6167 7 44.3333V11.6667C7 10.3833 7.45694 9.28472 8.37083 8.37083C9.28472 7.45694 10.3833 7 11.6667 7H44.3333C45.6167 7 46.7153 7.45694 47.6292 8.37083C48.5431 9.28472 49 10.3833 49 11.6667V44.3333C49 45.6167 48.5431 46.7153 47.6292 47.6292C46.7153 48.5431 45.6167 49 44.3333 49H11.6667ZM11.6667 44.3333H44.3333V11.6667H11.6667V44.3333Z" fill="black"/>
</svg>
