<svg width="56" height="56" viewBox="0 0 56 56" fill="none" xmlns="http://www.w3.org/2000/svg">
<path d="M25.6665 39.6666H16.3332C13.1054 39.6666 10.354 38.5291 8.079 36.2541C5.804 33.9791 4.6665 31.2277 4.6665 27.9999C4.6665 24.7721 5.804 22.0208 8.079 19.7458C10.354 17.4708 13.1054 16.3333 16.3332 16.3333H25.6665V20.9999H16.3332C14.3887 20.9999 12.7359 21.6805 11.3748 23.0416C10.0137 24.4027 9.33317 26.0555 9.33317 27.9999C9.33317 29.9444 10.0137 31.5971 11.3748 32.9583C12.7359 34.3194 14.3887 34.9999 16.3332 34.9999H25.6665V39.6666ZM18.6665 30.3333V25.6666H37.3332V30.3333H18.6665ZM30.3332 39.6666V34.9999H39.6665C41.6109 34.9999 43.2637 34.3194 44.6248 32.9583C45.986 31.5971 46.6665 29.9444 46.6665 27.9999C46.6665 26.0555 45.986 24.4027 44.6248 23.0416C43.2637 21.6805 41.6109 20.9999 39.6665 20.9999H30.3332V16.3333H39.6665C42.8943 16.3333 45.6457 17.4708 47.9207 19.7458C50.1957 22.0208 51.3332 24.7721 51.3332 27.9999C51.3332 31.2277 50.1957 33.9791 47.9207 36.2541C45.6457 38.5291 42.8943 39.6666 39.6665 39.6666H30.3332Z" fill="black"/>
</svg>
