<svg width="56" height="56" viewBox="0 0 56 56" fill="none" xmlns="http://www.w3.org/2000/svg">
<path d="M9.33301 35.0001C7.38856 35.0001 5.73579 34.3195 4.37467 32.9584C3.01356 31.5973 2.33301 29.9445 2.33301 28.0001C2.33301 26.0556 3.01356 24.4029 4.37467 23.0417C5.73579 21.6806 7.38856 21.0001 9.33301 21.0001V16.3334C9.33301 15.0501 9.78995 13.9515 10.7038 13.0376C11.6177 12.1237 12.7163 11.6667 13.9997 11.6667H20.9997C20.9997 9.7223 21.6802 8.06953 23.0413 6.70841C24.4025 5.3473 26.0552 4.66675 27.9997 4.66675C29.9441 4.66675 31.5969 5.3473 32.958 6.70841C34.3191 8.06953 34.9997 9.7223 34.9997 11.6667H41.9997C43.283 11.6667 44.3816 12.1237 45.2955 13.0376C46.2094 13.9515 46.6663 15.0501 46.6663 16.3334V21.0001C48.6108 21.0001 50.2636 21.6806 51.6247 23.0417C52.9858 24.4029 53.6663 26.0556 53.6663 28.0001C53.6663 29.9445 52.9858 31.5973 51.6247 32.9584C50.2636 34.3195 48.6108 35.0001 46.6663 35.0001V44.3334C46.6663 45.6168 46.2094 46.7154 45.2955 47.6292C44.3816 48.5431 43.283 49.0001 41.9997 49.0001H13.9997C12.7163 49.0001 11.6177 48.5431 10.7038 47.6292C9.78995 46.7154 9.33301 45.6168 9.33301 44.3334V35.0001ZM20.9997 30.3334C21.9719 30.3334 22.7983 29.9931 23.4788 29.3126C24.1594 28.632 24.4997 27.8056 24.4997 26.8334C24.4997 25.8612 24.1594 25.0348 23.4788 24.3542C22.7983 23.6737 21.9719 23.3334 20.9997 23.3334C20.0275 23.3334 19.2011 23.6737 18.5205 24.3542C17.84 25.0348 17.4997 25.8612 17.4997 26.8334C17.4997 27.8056 17.84 28.632 18.5205 29.3126C19.2011 29.9931 20.0275 30.3334 20.9997 30.3334ZM34.9997 30.3334C35.9719 30.3334 36.7983 29.9931 37.4788 29.3126C38.1594 28.632 38.4997 27.8056 38.4997 26.8334C38.4997 25.8612 38.1594 25.0348 37.4788 24.3542C36.7983 23.6737 35.9719 23.3334 34.9997 23.3334C34.0275 23.3334 33.2011 23.6737 32.5205 24.3542C31.84 25.0348 31.4997 25.8612 31.4997 26.8334C31.4997 27.8056 31.84 28.632 32.5205 29.3126C33.2011 29.9931 34.0275 30.3334 34.9997 30.3334ZM18.6663 39.6668H37.333V35.0001H18.6663V39.6668ZM13.9997 44.3334H41.9997V16.3334H13.9997V44.3334Z" fill="black"/>
</svg>
