<svg width="56" height="56" viewBox="0 0 56 56" fill="none" xmlns="http://www.w3.org/2000/svg">
<path d="M27.9999 51.3334C22.5944 49.9723 18.1319 46.8709 14.6124 42.0292C11.093 37.1876 9.33325 31.8112 9.33325 25.9001V11.6667L27.9999 4.66675L46.6666 11.6667V25.9001C46.6666 31.8112 44.9069 37.1876 41.3874 42.0292C37.868 46.8709 33.4055 49.9723 27.9999 51.3334ZM27.9999 46.4334C32.0444 45.1501 35.3888 42.5834 38.0333 38.7334C40.6777 34.8834 41.9999 30.6056 41.9999 25.9001V14.8751L27.9999 9.62508L13.9999 14.8751V25.9001C13.9999 30.6056 15.3221 34.8834 17.9666 38.7334C20.611 42.5834 23.9555 45.1501 27.9999 46.4334Z" fill="black"/>
</svg>
