<svg width="196" height="196" viewBox="0 0 196 196" fill="none" xmlns="http://www.w3.org/2000/svg">
<path d="M32.6667 122.5C25.8612 122.5 20.0765 120.118 15.3126 115.354C10.5487 110.59 8.16675 104.806 8.16675 98C8.16675 91.1945 10.5487 85.4098 15.3126 80.6459C20.0765 75.882 25.8612 73.5 32.6667 73.5V57.1667C32.6667 52.675 34.2661 48.8299 37.4647 45.6313C40.6633 42.4327 44.5084 40.8334 49.0001 40.8334H73.5001C73.5001 34.0278 75.882 28.2431 80.6459 23.4792C85.4098 18.7153 91.1945 16.3334 98.0001 16.3334C104.806 16.3334 110.59 18.7153 115.354 23.4792C120.118 28.2431 122.5 34.0278 122.5 40.8334H147C151.492 40.8334 155.337 42.4327 158.535 45.6313C161.734 48.8299 163.333 52.675 163.333 57.1667V73.5C170.139 73.5 175.924 75.882 180.688 80.6459C185.451 85.4098 187.833 91.1945 187.833 98C187.833 104.806 185.451 110.59 180.688 115.354C175.924 120.118 170.139 122.5 163.333 122.5V155.167C163.333 159.658 161.734 163.504 158.535 166.702C155.337 169.901 151.492 171.5 147 171.5H49.0001C44.5084 171.5 40.6633 169.901 37.4647 166.702C34.2661 163.504 32.6667 159.658 32.6667 155.167V122.5ZM73.5001 106.167C76.9029 106.167 79.7952 104.976 82.1772 102.594C84.5591 100.212 85.7501 97.3195 85.7501 93.9167C85.7501 90.5139 84.5591 87.6216 82.1772 85.2396C79.7952 82.8577 76.9029 81.6667 73.5001 81.6667C70.0973 81.6667 67.2049 82.8577 64.823 85.2396C62.4411 87.6216 61.2501 90.5139 61.2501 93.9167C61.2501 97.3195 62.4411 100.212 64.823 102.594C67.2049 104.976 70.0973 106.167 73.5001 106.167ZM122.5 106.167C125.903 106.167 128.795 104.976 131.177 102.594C133.559 100.212 134.75 97.3195 134.75 93.9167C134.75 90.5139 133.559 87.6216 131.177 85.2396C128.795 82.8577 125.903 81.6667 122.5 81.6667C119.097 81.6667 116.205 82.8577 113.823 85.2396C111.441 87.6216 110.25 90.5139 110.25 93.9167C110.25 97.3195 111.441 100.212 113.823 102.594C116.205 104.976 119.097 106.167 122.5 106.167ZM65.3334 138.833H130.667V122.5H65.3334V138.833ZM49.0001 155.167H147V57.1667H49.0001V155.167Z" fill="#606060"/>
</svg>
