<svg width="196" height="196" viewBox="0 0 196 196" fill="none" xmlns="http://www.w3.org/2000/svg">
<path d="M138.833 130.667C132.028 130.667 126.243 128.285 121.479 123.521C116.715 118.757 114.333 112.972 114.333 106.167C114.333 99.3611 116.715 93.5764 121.479 88.8125C126.243 84.0486 132.028 81.6667 138.833 81.6667C145.639 81.6667 151.424 84.0486 156.188 88.8125C160.951 93.5764 163.333 99.3611 163.333 106.167C163.333 112.972 160.951 118.757 156.188 123.521C151.424 128.285 145.639 130.667 138.833 130.667ZM138.833 114.333C141.147 114.333 143.087 113.551 144.652 111.985C146.217 110.42 147 108.481 147 106.167C147 103.853 146.217 101.913 144.652 100.348C143.087 98.7826 141.147 98 138.833 98C136.519 98 134.58 98.7826 133.015 100.348C131.449 101.913 130.667 103.853 130.667 106.167C130.667 108.481 131.449 110.42 133.015 111.985C134.58 113.551 136.519 114.333 138.833 114.333ZM89.8333 187.833V164.15C89.8333 161.292 90.5139 158.603 91.875 156.085C93.2361 153.567 95.1417 151.56 97.5917 150.062C101.947 147.476 106.541 145.333 111.373 143.631C116.205 141.93 121.139 140.671 126.175 139.854L138.833 155.167L151.492 139.854C156.528 140.671 161.428 141.93 166.192 143.631C170.956 145.333 175.515 147.476 179.871 150.062C182.321 151.56 184.26 153.567 185.69 156.085C187.119 158.603 187.833 161.292 187.833 164.15V187.833H89.8333ZM105.963 171.5H131.075L120.05 158.025C117.6 158.706 115.218 159.59 112.904 160.679C110.59 161.768 108.276 162.925 105.963 164.15V171.5ZM146.592 171.5H171.5V164.15C169.322 162.789 167.076 161.598 164.762 160.577C162.449 159.556 160.067 158.706 157.617 158.025L146.592 171.5ZM40.8333 171.5C36.3417 171.5 32.4965 169.901 29.2979 166.702C26.0993 163.503 24.5 159.658 24.5 155.167V40.8333C24.5 36.3417 26.0993 32.4965 29.2979 29.2979C32.4965 26.0993 36.3417 24.5 40.8333 24.5H155.167C159.658 24.5 163.503 26.0993 166.702 29.2979C169.901 32.4965 171.5 36.3417 171.5 40.8333V81.6667C169.322 78.9444 166.94 76.3583 164.354 73.9083C161.768 71.4583 158.706 69.825 155.167 69.0083V40.8333H40.8333V155.167H74.725C74.3167 156.664 74.0104 158.161 73.8063 159.658C73.6021 161.156 73.5 162.653 73.5 164.15V171.5H40.8333ZM57.1667 73.5H114.333C117.872 70.7778 121.751 68.7361 125.971 67.375C130.19 66.0139 134.478 65.3333 138.833 65.3333V57.1667H57.1667V73.5ZM57.1667 106.167H98C98 103.308 98.3063 100.518 98.9187 97.7958C99.5312 95.0736 100.382 92.4194 101.471 89.8333H57.1667V106.167ZM57.1667 138.833H85.3417C86.8389 137.608 88.4382 136.519 90.1396 135.567C91.841 134.614 93.5764 133.729 95.3458 132.912V122.5H57.1667V138.833ZM40.8333 155.167V40.8333V68.8042V65.3333V155.167Z" fill="#606060"/>
</svg>
