<svg width="196" height="196" viewBox="0 0 196 196" fill="none" xmlns="http://www.w3.org/2000/svg">
<path d="M98 171.5C77.4472 171.5 60.059 168.335 45.8354 162.006C31.6118 155.677 24.5 147.953 24.5 138.833V57.1667C24.5 48.1833 31.6799 40.4931 46.0396 34.0958C60.3993 27.6986 77.7194 24.5 98 24.5C118.281 24.5 135.601 27.6986 149.96 34.0958C164.32 40.4931 171.5 48.1833 171.5 57.1667V138.833C171.5 147.953 164.388 155.677 150.165 162.006C135.941 168.335 118.553 171.5 98 171.5ZM98 73.7042C110.114 73.7042 122.296 71.9688 134.546 68.4979C146.796 65.0271 153.669 61.3181 155.167 57.3708C153.669 53.4236 146.83 49.6806 134.648 46.1417C122.466 42.6028 110.25 40.8333 98 40.8333C85.6139 40.8333 73.466 42.5688 61.5563 46.0396C49.6465 49.5104 42.7389 53.2875 40.8333 57.3708C42.7389 61.4542 49.6465 65.1972 61.5563 68.6C73.466 72.0028 85.6139 73.7042 98 73.7042ZM98 114.333C103.717 114.333 109.229 114.061 114.537 113.517C119.846 112.972 124.916 112.19 129.748 111.169C134.58 110.148 139.14 108.889 143.427 107.392C147.715 105.894 151.628 104.193 155.167 102.287V77.7875C151.628 79.6931 147.715 81.3944 143.427 82.8917C139.14 84.3889 134.58 85.6479 129.748 86.6688C124.916 87.6896 119.846 88.4722 114.537 89.0167C109.229 89.5611 103.717 89.8333 98 89.8333C92.2833 89.8333 86.7028 89.5611 81.2583 89.0167C75.8139 88.4722 70.6757 87.6896 65.8438 86.6688C61.0118 85.6479 56.4861 84.3889 52.2667 82.8917C48.0472 81.3944 44.2361 79.6931 40.8333 77.7875V102.287C44.2361 104.193 48.0472 105.894 52.2667 107.392C56.4861 108.889 61.0118 110.148 65.8438 111.169C70.6757 112.19 75.8139 112.972 81.2583 113.517C86.7028 114.061 92.2833 114.333 98 114.333ZM98 155.167C104.261 155.167 110.624 154.69 117.09 153.738C123.555 152.785 129.51 151.526 134.954 149.96C140.399 148.395 144.958 146.626 148.633 144.652C152.308 142.678 154.486 140.671 155.167 138.629V118.621C151.628 120.526 147.715 122.228 143.427 123.725C139.14 125.222 134.58 126.481 129.748 127.502C124.916 128.523 119.846 129.306 114.537 129.85C109.229 130.394 103.717 130.667 98 130.667C92.2833 130.667 86.7028 130.394 81.2583 129.85C75.8139 129.306 70.6757 128.523 65.8438 127.502C61.0118 126.481 56.4861 125.222 52.2667 123.725C48.0472 122.228 44.2361 120.526 40.8333 118.621V138.833C41.5139 140.875 43.6576 142.849 47.2646 144.754C50.8715 146.66 55.3972 148.395 60.8417 149.96C66.2861 151.526 72.275 152.785 78.8083 153.738C85.3417 154.69 91.7389 155.167 98 155.167Z" fill="#606060"/>
</svg>
