<svg width="196" height="196" viewBox="0 0 196 196" fill="none" xmlns="http://www.w3.org/2000/svg">
<path d="M73.5 171.5H40.8333C36.3417 171.5 32.4965 169.901 29.2979 166.702C26.0993 163.503 24.5 159.658 24.5 155.167V98C24.5 87.7917 26.4396 78.2299 30.3187 69.3146C34.1979 60.3993 39.4382 52.641 46.0396 46.0396C52.641 39.4382 60.3993 34.1979 69.3146 30.3187C78.2299 26.4396 87.7917 24.5 98 24.5C108.208 24.5 117.77 26.4396 126.685 30.3187C135.601 34.1979 143.359 39.4382 149.96 46.0396C156.562 52.641 161.802 60.3993 165.681 69.3146C169.56 78.2299 171.5 87.7917 171.5 98V155.167C171.5 159.658 169.901 163.503 166.702 166.702C163.503 169.901 159.658 171.5 155.167 171.5H122.5V106.167H155.167V98C155.167 82.075 149.62 68.566 138.527 57.4729C127.434 46.3799 113.925 40.8333 98 40.8333C82.075 40.8333 68.566 46.3799 57.4729 57.4729C46.3799 68.566 40.8333 82.075 40.8333 98V106.167H73.5V171.5ZM57.1667 122.5H40.8333V155.167H57.1667V122.5ZM138.833 122.5V155.167H155.167V122.5H138.833Z" fill="#606060"/>
</svg>
