<svg width="196" height="196" viewBox="0 0 196 196" fill="none" xmlns="http://www.w3.org/2000/svg">
<path d="M81.6666 179.667C77.1749 179.667 73.3298 178.067 70.1312 174.869C66.9326 171.67 65.3333 167.825 65.3333 163.333V130.667H32.6666C28.1749 130.667 24.3298 129.067 21.1312 125.869C17.9326 122.67 16.3333 118.825 16.3333 114.333V32.6666C16.3333 28.1749 17.9326 24.3298 21.1312 21.1312C24.3298 17.9326 28.1749 16.3333 32.6666 16.3333H114.333C118.825 16.3333 122.67 17.9326 125.869 21.1312C129.067 24.3298 130.667 28.1749 130.667 32.6666V65.3333H163.333C167.825 65.3333 171.67 66.9326 174.869 70.1312C178.067 73.3298 179.667 77.1749 179.667 81.6666V163.333C179.667 167.825 178.067 171.67 174.869 174.869C171.67 178.067 167.825 179.667 163.333 179.667H81.6666ZM81.6666 163.333H163.333V81.6666H114.333V32.6666H32.6666V114.333H81.6666V163.333Z" fill="#606060"/>
</svg>
