<svg width="196" height="196" viewBox="0 0 196 196" fill="none" xmlns="http://www.w3.org/2000/svg">
<path d="M63.6999 130.667H76.7666L83.2999 111.883H113.108L119.642 130.667H132.3L104.533 57.1666H91.4666L63.6999 130.667ZM86.9749 101.267L97.5916 70.6416H98.4082L109.025 101.267H86.9749ZM97.9999 179.667C86.7027 179.667 76.086 177.523 66.1499 173.235C56.2138 168.948 47.5708 163.129 40.2208 155.779C32.8708 148.429 27.052 139.786 22.7645 129.85C18.477 119.914 16.3333 109.297 16.3333 97.9999H32.6666C32.6666 106.983 34.368 115.456 37.7708 123.419C41.1735 131.381 45.8353 138.323 51.7562 144.244C57.677 150.165 64.6187 154.86 72.5812 158.331C80.5437 161.802 89.0166 163.537 97.9999 163.537C116.239 163.537 131.687 157.208 144.346 144.55C157.004 131.892 163.333 116.443 163.333 98.2041C163.333 79.9652 157.004 64.5166 144.346 51.8583C131.687 39.1999 116.239 32.8708 97.9999 32.8708C85.886 32.8708 74.8951 35.8312 65.027 41.752C55.1589 47.6728 47.3666 55.5333 41.6499 65.3333H65.3333V81.6666H16.3333V32.6666H32.6666V48.9999C40.1527 39.0638 49.5444 31.1353 60.8416 25.2145C72.1388 19.2937 84.5249 16.3333 97.9999 16.3333C109.297 16.3333 119.914 18.477 129.85 22.7645C139.786 27.052 148.429 32.8708 155.779 40.2208C163.129 47.5708 168.948 56.2138 173.235 66.1499C177.523 76.086 179.667 86.7027 179.667 97.9999C179.667 109.297 177.523 119.914 173.235 129.85C168.948 139.786 163.129 148.429 155.779 155.779C148.429 163.129 139.786 168.948 129.85 173.235C119.914 177.523 109.297 179.667 97.9999 179.667Z" fill="#606060"/>
</svg>
