<svg width="1392" height="176" viewBox="0 0 1392 176" fill="none" xmlns="http://www.w3.org/2000/svg">
<rect width="1392" height="176" rx="16" fill="#EBE9E9"/>
<path d="M149.263 119.621C140.08 128.804 126 130 126 130H160V96C160 96 157.996 110.888 149.263 119.621Z" fill="black" stroke="black" stroke-width="0.34"/>
<path d="M170.737 119.621C179.92 128.804 194 130 194 130H160V96C160 96 162.004 110.888 170.737 119.621Z" fill="black" stroke="black" stroke-width="0.34"/>
<path d="M149.263 140.379C140.08 131.196 126 130 126 130H160V164C160 164 157.996 149.112 149.263 140.379Z" fill="black" stroke="black" stroke-width="0.34"/>
<path d="M170.737 140.379C179.92 131.196 194 130 194 130H160V164C160 164 162.004 149.112 170.737 140.379Z" fill="black" stroke="black" stroke-width="0.34"/>
<path d="M35.9737 55.1579C31.2473 59.8843 24 60.5 24 60.5H41.5V43C41.5 43 40.4686 50.663 35.9737 55.1579Z" fill="black" stroke="black" stroke-width="0.175"/>
<path d="M47.0263 55.1579C51.7527 59.8843 59 60.5 59 60.5H41.5V43C41.5 43 42.5314 50.663 47.0263 55.1579Z" fill="black" stroke="black" stroke-width="0.175"/>
<path d="M35.9737 65.8421C31.2473 61.1157 24 60.5 24 60.5H41.5V78C41.5 78 40.4686 70.337 35.9737 65.8421Z" fill="black" stroke="black" stroke-width="0.175"/>
<path d="M47.0263 65.8421C51.7527 61.1157 59 60.5 59 60.5H41.5V78C41.5 78 42.5314 70.337 47.0263 65.8421Z" fill="black" stroke="black" stroke-width="0.175"/>
<path d="M405.368 33.5895C399.697 39.2612 391 40 391 40H412V19C412 19 410.762 28.1956 405.368 33.5895Z" fill="black" stroke="black" stroke-width="0.21"/>
<path d="M418.632 33.5895C424.303 39.2612 433 40 433 40H412V19C412 19 413.238 28.1956 418.632 33.5895Z" fill="black" stroke="black" stroke-width="0.21"/>
<path d="M405.368 46.4105C399.697 40.7388 391 40 391 40H412V61C412 61 410.762 51.8044 405.368 46.4105Z" fill="black" stroke="black" stroke-width="0.21"/>
<path d="M418.632 46.4105C424.303 40.7388 433 40 433 40H412V61C412 61 413.238 51.8044 418.632 46.4105Z" fill="black" stroke="black" stroke-width="0.21"/>
<path d="M1302.74 80.1789C1291.39 91.5224 1274 93 1274 93H1316V51C1316 51 1313.52 69.3912 1302.74 80.1789Z" fill="black" stroke="black" stroke-width="0.42"/>
<path d="M1329.26 80.1789C1340.61 91.5224 1358 93 1358 93H1316V51C1316 51 1318.48 69.3912 1329.26 80.1789Z" fill="black" stroke="black" stroke-width="0.42"/>
<path d="M1302.74 105.821C1291.39 94.4776 1274 93 1274 93H1316V135C1316 135 1313.52 116.609 1302.74 105.821Z" fill="black" stroke="black" stroke-width="0.42"/>
<path d="M1329.26 105.821C1340.61 94.4776 1358 93 1358 93H1316V135C1316 135 1318.48 116.609 1329.26 105.821Z" fill="black" stroke="black" stroke-width="0.42"/>
<path d="M1081.37 54.5895C1075.7 60.2612 1067 61 1067 61H1088V40C1088 40 1086.76 49.1956 1081.37 54.5895Z" fill="black" stroke="black" stroke-width="0.21"/>
<path d="M1094.63 54.5895C1100.3 60.2612 1109 61 1109 61H1088V40C1088 40 1089.24 49.1956 1094.63 54.5895Z" fill="black" stroke="black" stroke-width="0.21"/>
<path d="M1081.37 67.4105C1075.7 61.7388 1067 61 1067 61H1088V82C1088 82 1086.76 72.8044 1081.37 67.4105Z" fill="black" stroke="black" stroke-width="0.21"/>
<path d="M1094.63 67.4105C1100.3 61.7388 1109 61 1109 61H1088V82C1088 82 1089.24 72.8044 1094.63 67.4105Z" fill="black" stroke="black" stroke-width="0.21"/>
<path d="M962.869 55.8423C963.336 56.5259 963.161 57.4592 962.478 57.9269C961.794 58.3945 960.861 58.2194 960.393 57.5358L961.631 56.6891L962.869 55.8423ZM961.574 56.6065L960.337 57.4533L960.191 57.2406L960.125 56.9917L961.574 56.6065ZM959.038 50.6782L960.189 49.717L959.038 50.6782ZM930.546 39.0374L930.041 40.4495L930.546 39.0374ZM926.808 36.648L927.875 35.5942L926.808 36.648ZM923.29 33.8658L924.065 32.5823L923.29 33.8658ZM920.332 30.8559L919.026 31.5929L920.332 30.8559ZM914.756 20.0149L916.122 19.396L916.123 19.3974L914.756 20.0149ZM914.338 19.0916L912.972 19.7105L912.968 19.7026L912.965 19.6947L914.338 19.0916ZM912.924 19.6031C912.591 18.8448 912.936 17.96 913.694 17.6269C914.453 17.2938 915.337 17.6386 915.67 18.3969L914.297 19L912.924 19.6031ZM961.631 56.6891L960.393 57.5358L960.337 57.4533L961.574 56.6065L962.812 55.7598L962.869 55.8423L961.631 56.6891ZM961.574 56.6065L960.125 56.9917C959.385 54.2074 958.606 52.5009 957.887 51.6394L959.038 50.6782L960.189 49.717C961.35 51.1069 962.262 53.3527 963.024 56.2214L961.574 56.6065ZM959.038 50.6782L957.887 51.6394C957.038 50.623 956.063 49.745 954.958 49.0028L955.795 47.7579L956.631 46.513C957.97 47.413 959.158 48.4818 960.189 49.717L959.038 50.6782ZM955.795 47.7579L954.958 49.0028C953.809 48.2307 952.59 47.5577 951.3 46.9839L951.91 45.6137L952.519 44.2435C953.965 44.8864 955.336 45.6429 956.631 46.513L955.795 47.7579ZM951.91 45.6137L951.3 46.9839C950.023 46.4155 948.701 45.9768 947.333 45.6674L947.664 44.2047L947.995 42.7419C949.553 43.0945 951.062 43.5951 952.519 44.2435L951.91 45.6137ZM947.664 44.2047L947.333 45.6674C945.845 45.3309 944.372 44.9581 942.913 44.5489L943.318 43.105L943.723 41.661C945.132 42.0563 946.556 42.4166 947.995 42.7419L947.664 44.2047ZM943.318 43.105L942.913 44.5489C941.443 44.1366 939.988 43.6694 938.547 43.1473L939.058 41.7373L939.569 40.3273C940.94 40.8243 942.325 41.2688 943.723 41.661L943.318 43.105ZM939.058 41.7373L938.547 43.1473C937.178 42.6511 935.8 42.2128 934.415 41.8322L934.812 40.3861L935.21 38.94C936.673 39.3419 938.126 39.8044 939.569 40.3273L939.058 41.7373ZM934.812 40.3861L934.415 41.8322C932.954 41.4308 931.496 40.9698 930.041 40.4495L930.546 39.0374L931.051 37.6253C932.437 38.1208 933.823 38.5589 935.21 38.94L934.812 40.3861ZM930.546 39.0374L930.041 40.4495C928.406 39.865 926.969 38.9451 925.741 37.7019L926.808 36.648L927.875 35.5942C928.79 36.5209 929.845 37.194 931.051 37.6253L930.546 39.0374ZM926.808 36.648L925.741 37.7019C924.755 36.7031 923.679 35.8534 922.514 35.1494L923.29 33.8658L924.065 32.5823C925.448 33.4179 926.718 34.4231 927.875 35.5942L926.808 36.648ZM923.29 33.8658L922.514 35.1494C921.03 34.2527 919.857 33.0655 919.026 31.5929L920.332 30.8559L921.638 30.1189C922.203 31.1199 923.001 31.9392 924.065 32.5823L923.29 33.8658ZM920.332 30.8559L919.026 31.5929C918.344 30.3842 917.601 29.159 916.797 27.9171L918.056 27.102L919.315 26.2869C920.15 27.5767 920.925 28.8541 921.638 30.1189L920.332 30.8559ZM918.056 27.102L916.797 27.9171C915.922 26.5657 915.196 25.1452 914.621 23.6568L916.02 23.1165L917.419 22.5762C917.919 23.8701 918.55 25.1066 919.315 26.2869L918.056 27.102ZM916.02 23.1165L914.621 23.6568C914.086 22.2713 913.677 21.2694 913.389 20.6324L914.756 20.0149L916.123 19.3974C916.446 20.1136 916.88 21.1794 917.419 22.5762L916.02 23.1165ZM914.756 20.0149L913.39 20.6338L912.972 19.7105L914.338 19.0916L915.704 18.4726L916.122 19.396L914.756 20.0149ZM914.338 19.0916L912.965 19.6947L912.924 19.6031L914.297 19L915.67 18.3969L915.711 18.4884L914.338 19.0916Z" fill="black"/>
<path d="M957.82 63.1256C958.288 63.8092 958.113 64.7425 957.429 65.2101C956.746 65.6778 955.812 65.5027 955.345 64.8191L956.583 63.9723L957.82 63.1256ZM956.526 63.8898L955.288 64.7365L955.143 64.5239L955.077 64.2749L956.526 63.8898ZM953.99 57.9614L955.141 57.0002L953.99 57.9614ZM925.498 46.3206L924.993 47.7328L925.498 46.3206ZM921.76 43.9313L922.827 42.8775L921.76 43.9313ZM918.241 41.1491L919.017 39.8655L918.241 41.1491ZM915.284 38.1392L913.978 38.8762L915.284 38.1392ZM909.708 27.2982L911.074 26.6792L911.074 26.6807L909.708 27.2982ZM909.289 26.3748L907.923 26.9938L907.92 26.9859L907.916 26.9779L909.289 26.3748ZM907.876 26.8864C907.543 26.128 907.888 25.2433 908.646 24.9102C909.404 24.5771 910.289 24.9218 910.622 25.6802L909.249 26.2833L907.876 26.8864ZM956.583 63.9723L955.345 64.8191L955.288 64.7365L956.526 63.8898L957.764 63.0431L957.82 63.1256L956.583 63.9723ZM956.526 63.8898L955.077 64.2749C954.337 61.4907 953.558 59.7842 952.838 58.9226L953.99 57.9614L955.141 57.0002C956.301 58.3902 957.213 60.636 957.975 63.5047L956.526 63.8898ZM953.99 57.9614L952.838 58.9226C951.99 57.9063 951.015 57.0283 949.91 56.286L950.746 55.0412L951.582 53.7963C952.922 54.6962 954.109 55.7651 955.141 57.0002L953.99 57.9614ZM950.746 55.0412L949.91 56.286C948.761 55.514 947.542 54.8409 946.252 54.2671L946.862 52.8969L947.471 51.5267C948.916 52.1697 950.287 52.9262 951.582 53.7963L950.746 55.0412ZM946.862 52.8969L946.252 54.2671C944.974 53.6987 943.652 53.26 942.285 52.9507L942.616 51.488L942.946 50.0252C944.505 50.3777 946.014 50.8784 947.471 51.5267L946.862 52.8969ZM942.616 51.488L942.285 52.9507C940.797 52.6142 939.323 52.2414 937.865 51.8322L938.27 50.3882L938.675 48.9443C940.084 49.3395 941.508 49.6999 942.946 50.0252L942.616 51.488ZM938.27 50.3882L937.865 51.8322C936.395 51.4199 934.94 50.9527 933.499 50.4306L934.01 49.0206L934.52 47.6106C935.892 48.1075 937.277 48.5521 938.675 48.9443L938.27 50.3882ZM934.01 49.0206L933.499 50.4306C932.129 49.9344 930.752 49.4961 929.367 49.1155L929.764 47.6694L930.161 46.2233C931.624 46.6252 933.077 47.0877 934.52 47.6106L934.01 49.0206ZM929.764 47.6694L929.367 49.1155C927.906 48.714 926.448 48.2531 924.993 47.7328L925.498 46.3206L926.003 44.9085C927.388 45.404 928.775 45.8422 930.161 46.2233L929.764 47.6694ZM925.498 46.3206L924.993 47.7328C923.358 47.1482 921.921 46.2284 920.693 44.9852L921.76 43.9313L922.827 42.8775C923.742 43.8042 924.797 44.4772 926.003 44.9085L925.498 46.3206ZM921.76 43.9313L920.693 44.9852C919.706 43.9863 918.631 43.1367 917.466 42.4326L918.241 41.1491L919.017 39.8655C920.4 40.7012 921.67 41.7063 922.827 42.8775L921.76 43.9313ZM918.241 41.1491L917.466 42.4326C915.982 41.536 914.809 40.3487 913.978 38.8762L915.284 38.1392L916.59 37.4022C917.155 38.4032 917.953 39.2225 919.017 39.8655L918.241 41.1491ZM915.284 38.1392L913.978 38.8762C913.296 37.6675 912.553 36.4423 911.749 35.2004L913.007 34.3853L914.266 33.5702C915.102 34.86 915.876 36.1374 916.59 37.4022L915.284 38.1392ZM913.007 34.3853L911.749 35.2004C910.874 33.849 910.148 32.4285 909.573 30.9401L910.972 30.3998L912.371 29.8595C912.871 31.1534 913.502 32.3899 914.266 33.5702L913.007 34.3853ZM910.972 30.3998L909.573 30.9401C909.038 29.5546 908.629 28.5527 908.341 27.9157L909.708 27.2982L911.074 26.6807C911.398 27.3969 911.832 28.4627 912.371 29.8595L910.972 30.3998ZM909.708 27.2982L908.342 27.9171L907.923 26.9938L909.289 26.3748L910.655 25.7559L911.074 26.6792L909.708 27.2982ZM909.289 26.3748L907.916 26.9779L907.876 26.8864L909.249 26.2833L910.622 25.6802L910.662 25.7717L909.289 26.3748Z" fill="black"/>
<path d="M952.571 71.3739C953.039 72.0575 952.864 72.9908 952.18 73.4584C951.497 73.9261 950.563 73.751 950.096 73.0674L951.334 72.2206L952.571 71.3739ZM951.277 72.1381L950.039 72.9848L949.894 72.7722L949.828 72.5232L951.277 72.1381ZM948.741 66.2097L949.892 65.2485L948.741 66.2097ZM920.249 54.5689L919.744 55.981L920.249 54.5689ZM916.511 52.1796L917.578 51.1258L916.511 52.1796ZM912.993 49.3974L913.768 48.1138L912.993 49.3974ZM910.035 46.3875L908.729 47.1245L910.035 46.3875ZM904.459 35.5465L905.825 34.9275L905.825 34.9289L904.459 35.5465ZM904.04 34.6231L902.674 35.242L902.671 35.2342L902.667 35.2262L904.04 34.6231ZM902.627 35.1347C902.294 34.3763 902.639 33.4916 903.397 33.1585C904.155 32.8254 905.04 33.1701 905.373 33.9284L904 34.5316L902.627 35.1347ZM951.334 72.2206L950.096 73.0674L950.039 72.9848L951.277 72.1381L952.515 71.2914L952.571 71.3739L951.334 72.2206ZM951.277 72.1381L949.828 72.5232C949.088 69.7389 948.309 68.0325 947.589 67.1709L948.741 66.2097L949.892 65.2485C951.052 66.6385 951.964 68.8843 952.727 71.753L951.277 72.1381ZM948.741 66.2097L947.589 67.1709C946.741 66.1546 945.766 65.2766 944.661 64.5343L945.497 63.2895L946.334 62.0446C947.673 62.9445 948.86 64.0133 949.892 65.2485L948.741 66.2097ZM945.497 63.2895L944.661 64.5343C943.512 63.7623 942.293 63.0892 941.003 62.5154L941.613 61.1452L942.222 59.775C943.667 60.418 945.038 61.1745 946.334 62.0446L945.497 63.2895ZM941.613 61.1452L941.003 62.5154C939.725 61.947 938.403 61.5083 937.036 61.199L937.367 59.7362L937.697 58.2735C939.256 58.626 940.765 59.1266 942.222 59.775L941.613 61.1452ZM937.367 59.7362L937.036 61.199C935.548 60.8625 934.075 60.4896 932.616 60.0805L933.021 58.6365L933.426 57.1926C934.835 57.5878 936.259 57.9482 937.697 58.2735L937.367 59.7362ZM933.021 58.6365L932.616 60.0805C931.146 59.6682 929.691 59.201 928.25 58.6789L928.761 57.2689L929.271 55.8589C930.643 56.3558 932.028 56.8004 933.426 57.1926L933.021 58.6365ZM928.761 57.2689L928.25 58.6789C926.88 58.1827 925.503 57.7444 924.118 57.3638L924.515 55.9177L924.913 54.4716C926.375 54.8735 927.828 55.336 929.271 55.8589L928.761 57.2689ZM924.515 55.9177L924.118 57.3638C922.657 56.9623 921.199 56.5014 919.744 55.981L920.249 54.5689L920.754 53.1568C922.139 53.6523 923.526 54.0905 924.913 54.4716L924.515 55.9177ZM920.249 54.5689L919.744 55.981C918.109 55.3965 916.672 54.4767 915.444 53.2335L916.511 52.1796L917.578 51.1258C918.493 52.0525 919.548 52.7255 920.754 53.1568L920.249 54.5689ZM916.511 52.1796L915.444 53.2335C914.457 52.2346 913.382 51.385 912.217 50.6809L912.993 49.3974L913.768 48.1138C915.151 48.9494 916.421 49.9546 917.578 51.1258L916.511 52.1796ZM912.993 49.3974L912.217 50.6809C910.733 49.7843 909.56 48.597 908.729 47.1245L910.035 46.3875L911.341 45.6505C911.906 46.6515 912.704 47.4708 913.768 48.1138L912.993 49.3974ZM910.035 46.3875L908.729 47.1245C908.047 45.9158 907.304 44.6905 906.5 43.4487L907.759 42.6336L909.017 41.8184C909.853 43.1083 910.627 44.3857 911.341 45.6505L910.035 46.3875ZM907.759 42.6336L906.5 43.4487C905.625 42.0973 904.899 40.6768 904.324 39.1884L905.723 38.6481L907.122 38.1078C907.622 39.4017 908.253 40.6382 909.017 41.8184L907.759 42.6336ZM905.723 38.6481L904.324 39.1884C903.789 37.8029 903.38 36.8009 903.092 36.164L904.459 35.5465L905.825 34.9289C906.149 35.6452 906.583 36.711 907.122 38.1078L905.723 38.6481ZM904.459 35.5465L903.093 36.1654L902.674 35.242L904.04 34.6231L905.406 34.0042L905.825 34.9275L904.459 35.5465ZM904.04 34.6231L902.667 35.2262L902.627 35.1347L904 34.5316L905.373 33.9284L905.413 34.02L904.04 34.6231Z" fill="black"/>
<path d="M505.869 132.842C506.336 133.526 506.161 134.459 505.478 134.927C504.794 135.394 503.861 135.219 503.393 134.536L504.631 133.689L505.869 132.842ZM504.574 133.607L503.337 134.453L503.191 134.241L503.125 133.992L504.574 133.607ZM502.038 127.678L503.189 126.717L502.038 127.678ZM473.546 116.037L473.041 117.449L473.546 116.037ZM469.808 113.648L470.875 112.594L469.808 113.648ZM466.29 110.866L467.065 109.582L466.29 110.866ZM463.332 107.856L462.026 108.593L463.332 107.856ZM457.756 97.0149L459.122 96.396L459.123 96.3974L457.756 97.0149ZM457.338 96.0916L455.972 96.7105L455.968 96.7026L455.965 96.6947L457.338 96.0916ZM455.924 96.6031C455.591 95.8448 455.936 94.96 456.694 94.6269C457.453 94.2938 458.337 94.6386 458.67 95.3969L457.297 96L455.924 96.6031ZM504.631 133.689L503.393 134.536L503.337 134.453L504.574 133.607L505.812 132.76L505.869 132.842L504.631 133.689ZM504.574 133.607L503.125 133.992C502.385 131.207 501.606 129.501 500.887 128.639L502.038 127.678L503.189 126.717C504.35 128.107 505.262 130.353 506.024 133.221L504.574 133.607ZM502.038 127.678L500.887 128.639C500.038 127.623 499.063 126.745 497.958 126.003L498.795 124.758L499.631 123.513C500.97 124.413 502.158 125.482 503.189 126.717L502.038 127.678ZM498.795 124.758L497.958 126.003C496.809 125.231 495.59 124.558 494.3 123.984L494.91 122.614L495.519 121.243C496.965 121.886 498.336 122.643 499.631 123.513L498.795 124.758ZM494.91 122.614L494.3 123.984C493.023 123.415 491.701 122.977 490.333 122.667L490.664 121.205L490.995 119.742C492.553 120.094 494.062 120.595 495.519 121.243L494.91 122.614ZM490.664 121.205L490.333 122.667C488.845 122.331 487.372 121.958 485.913 121.549L486.318 120.105L486.723 118.661C488.132 119.056 489.556 119.417 490.995 119.742L490.664 121.205ZM486.318 120.105L485.913 121.549C484.443 121.137 482.988 120.669 481.547 120.147L482.058 118.737L482.569 117.327C483.94 117.824 485.325 118.269 486.723 118.661L486.318 120.105ZM482.058 118.737L481.547 120.147C480.178 119.651 478.8 119.213 477.415 118.832L477.812 117.386L478.21 115.94C479.673 116.342 481.126 116.804 482.569 117.327L482.058 118.737ZM477.812 117.386L477.415 118.832C475.954 118.431 474.496 117.97 473.041 117.449L473.546 116.037L474.051 114.625C475.437 115.121 476.823 115.559 478.21 115.94L477.812 117.386ZM473.546 116.037L473.041 117.449C471.406 116.865 469.969 115.945 468.741 114.702L469.808 113.648L470.875 112.594C471.79 113.521 472.845 114.194 474.051 114.625L473.546 116.037ZM469.808 113.648L468.741 114.702C467.755 113.703 466.679 112.853 465.514 112.149L466.29 110.866L467.065 109.582C468.448 110.418 469.718 111.423 470.875 112.594L469.808 113.648ZM466.29 110.866L465.514 112.149C464.03 111.253 462.857 110.065 462.026 108.593L463.332 107.856L464.638 107.119C465.203 108.12 466.001 108.939 467.065 109.582L466.29 110.866ZM463.332 107.856L462.026 108.593C461.344 107.384 460.601 106.159 459.797 104.917L461.056 104.102L462.315 103.287C463.15 104.577 463.925 105.854 464.638 107.119L463.332 107.856ZM461.056 104.102L459.797 104.917C458.922 103.566 458.196 102.145 457.621 100.657L459.02 100.117L460.419 99.5762C460.919 100.87 461.55 102.107 462.315 103.287L461.056 104.102ZM459.02 100.117L457.621 100.657C457.086 99.2713 456.677 98.2694 456.389 97.6324L457.756 97.0149L459.123 96.3974C459.446 97.1136 459.88 98.1794 460.419 99.5762L459.02 100.117ZM457.756 97.0149L456.39 97.6338L455.972 96.7105L457.338 96.0916L458.704 95.4726L459.122 96.396L457.756 97.0149ZM457.338 96.0916L455.965 96.6947L455.924 96.6031L457.297 96L458.67 95.3969L458.711 95.4884L457.338 96.0916Z" fill="black"/>
<path d="M500.82 140.126C501.288 140.809 501.113 141.742 500.429 142.21C499.746 142.678 498.812 142.503 498.345 141.819L499.583 140.972L500.82 140.126ZM499.526 140.89L498.288 141.737L498.143 141.524L498.077 141.275L499.526 140.89ZM496.99 134.961L498.141 134L496.99 134.961ZM468.498 123.321L467.993 124.733L468.498 123.321ZM464.76 120.931L465.827 119.877L464.76 120.931ZM461.241 118.149L462.017 116.866L461.241 118.149ZM458.284 115.139L456.978 115.876L458.284 115.139ZM452.708 104.298L454.074 103.679L454.074 103.681L452.708 104.298ZM452.289 103.375L450.923 103.994L450.92 103.986L450.916 103.978L452.289 103.375ZM450.876 103.886C450.543 103.128 450.888 102.243 451.646 101.91C452.404 101.577 453.289 101.922 453.622 102.68L452.249 103.283L450.876 103.886ZM499.583 140.972L498.345 141.819L498.288 141.737L499.526 140.89L500.764 140.043L500.82 140.126L499.583 140.972ZM499.526 140.89L498.077 141.275C497.337 138.491 496.558 136.784 495.838 135.923L496.99 134.961L498.141 134C499.301 135.39 500.213 137.636 500.975 140.505L499.526 140.89ZM496.99 134.961L495.838 135.923C494.99 134.906 494.015 134.028 492.91 133.286L493.746 132.041L494.582 130.796C495.922 131.696 497.109 132.765 498.141 134L496.99 134.961ZM493.746 132.041L492.91 133.286C491.761 132.514 490.542 131.841 489.252 131.267L489.862 129.897L490.471 128.527C491.916 129.17 493.287 129.926 494.582 130.796L493.746 132.041ZM489.862 129.897L489.252 131.267C487.974 130.699 486.652 130.26 485.285 129.951L485.616 128.488L485.946 127.025C487.505 127.378 489.014 127.878 490.471 128.527L489.862 129.897ZM485.616 128.488L485.285 129.951C483.797 129.614 482.323 129.241 480.865 128.832L481.27 127.388L481.675 125.944C483.084 126.34 484.508 126.7 485.946 127.025L485.616 128.488ZM481.27 127.388L480.865 128.832C479.395 128.42 477.94 127.953 476.499 127.431L477.01 126.021L477.52 124.611C478.892 125.108 480.277 125.552 481.675 125.944L481.27 127.388ZM477.01 126.021L476.499 127.431C475.129 126.934 473.752 126.496 472.367 126.115L472.764 124.669L473.161 123.223C474.624 123.625 476.077 124.088 477.52 124.611L477.01 126.021ZM472.764 124.669L472.367 126.115C470.906 125.714 469.448 125.253 467.993 124.733L468.498 123.321L469.003 121.909C470.388 122.404 471.775 122.842 473.161 123.223L472.764 124.669ZM468.498 123.321L467.993 124.733C466.358 124.148 464.921 123.228 463.693 121.985L464.76 120.931L465.827 119.877C466.742 120.804 467.797 121.477 469.003 121.909L468.498 123.321ZM464.76 120.931L463.693 121.985C462.706 120.986 461.631 120.137 460.466 119.433L461.241 118.149L462.017 116.866C463.4 117.701 464.67 118.706 465.827 119.877L464.76 120.931ZM461.241 118.149L460.466 119.433C458.982 118.536 457.809 117.349 456.978 115.876L458.284 115.139L459.59 114.402C460.155 115.403 460.953 116.223 462.017 116.866L461.241 118.149ZM458.284 115.139L456.978 115.876C456.296 114.668 455.553 113.442 454.749 112.2L456.007 111.385L457.266 110.57C458.102 111.86 458.876 113.137 459.59 114.402L458.284 115.139ZM456.007 111.385L454.749 112.2C453.874 110.849 453.148 109.428 452.573 107.94L453.972 107.4L455.371 106.859C455.871 108.153 456.502 109.39 457.266 110.57L456.007 111.385ZM453.972 107.4L452.573 107.94C452.038 106.555 451.629 105.553 451.341 104.916L452.708 104.298L454.074 103.681C454.398 104.397 454.832 105.463 455.371 106.859L453.972 107.4ZM452.708 104.298L451.342 104.917L450.923 103.994L452.289 103.375L453.655 102.756L454.074 103.679L452.708 104.298ZM452.289 103.375L450.916 103.978L450.876 103.886L452.249 103.283L453.622 102.68L453.662 102.772L452.289 103.375Z" fill="black"/>
<path d="M495.571 148.374C496.039 149.058 495.864 149.991 495.18 150.458C494.497 150.926 493.563 150.751 493.096 150.067L494.334 149.221L495.571 148.374ZM494.277 149.138L493.039 149.985L492.894 149.772L492.828 149.523L494.277 149.138ZM491.741 143.21L492.892 142.249L491.741 143.21ZM463.249 131.569L462.744 132.981L463.249 131.569ZM459.511 129.18L460.578 128.126L459.511 129.18ZM455.993 126.397L456.768 125.114L455.993 126.397ZM453.035 123.387L451.729 124.124L453.035 123.387ZM447.459 112.546L448.825 111.928L448.825 111.929L447.459 112.546ZM447.04 111.623L445.674 112.242L445.671 112.234L445.667 112.226L447.04 111.623ZM445.627 112.135C445.294 111.376 445.639 110.492 446.397 110.158C447.155 109.825 448.04 110.17 448.373 110.928L447 111.532L445.627 112.135ZM494.334 149.221L493.096 150.067L493.039 149.985L494.277 149.138L495.515 148.291L495.571 148.374L494.334 149.221ZM494.277 149.138L492.828 149.523C492.088 146.739 491.309 145.033 490.589 144.171L491.741 143.21L492.892 142.249C494.052 143.638 494.964 145.884 495.727 148.753L494.277 149.138ZM491.741 143.21L490.589 144.171C489.741 143.155 488.766 142.277 487.661 141.534L488.497 140.289L489.334 139.045C490.673 139.945 491.86 141.013 492.892 142.249L491.741 143.21ZM488.497 140.289L487.661 141.534C486.512 140.762 485.293 140.089 484.003 139.515L484.613 138.145L485.222 136.775C486.667 137.418 488.038 138.174 489.334 139.045L488.497 140.289ZM484.613 138.145L484.003 139.515C482.725 138.947 481.403 138.508 480.036 138.199L480.367 136.736L480.697 135.274C482.256 135.626 483.765 136.127 485.222 136.775L484.613 138.145ZM480.367 136.736L480.036 138.199C478.548 137.862 477.075 137.49 475.616 137.08L476.021 135.637L476.426 134.193C477.835 134.588 479.259 134.948 480.697 135.274L480.367 136.736ZM476.021 135.637L475.616 137.08C474.146 136.668 472.691 136.201 471.25 135.679L471.761 134.269L472.271 132.859C473.643 133.356 475.028 133.8 476.426 134.193L476.021 135.637ZM471.761 134.269L471.25 135.679C469.88 135.183 468.503 134.744 467.118 134.364L467.515 132.918L467.913 131.472C469.375 131.873 470.828 132.336 472.271 132.859L471.761 134.269ZM467.515 132.918L467.118 134.364C465.657 133.962 464.199 133.501 462.744 132.981L463.249 131.569L463.754 130.157C465.139 130.652 466.526 131.09 467.913 131.472L467.515 132.918ZM463.249 131.569L462.744 132.981C461.109 132.397 459.672 131.477 458.444 130.233L459.511 129.18L460.578 128.126C461.493 129.052 462.548 129.726 463.754 130.157L463.249 131.569ZM459.511 129.18L458.444 130.233C457.457 129.235 456.382 128.385 455.217 127.681L455.993 126.397L456.768 125.114C458.151 125.949 459.421 126.955 460.578 128.126L459.511 129.18ZM455.993 126.397L455.217 127.681C453.733 126.784 452.56 125.597 451.729 124.124L453.035 123.387L454.341 122.651C454.906 123.651 455.704 124.471 456.768 125.114L455.993 126.397ZM453.035 123.387L451.729 124.124C451.047 122.916 450.304 121.691 449.5 120.449L450.759 119.634L452.017 118.818C452.853 120.108 453.627 121.386 454.341 122.651L453.035 123.387ZM450.759 119.634L449.5 120.449C448.625 119.097 447.899 117.677 447.324 116.188L448.723 115.648L450.122 115.108C450.622 116.402 451.253 117.638 452.017 118.818L450.759 119.634ZM448.723 115.648L447.324 116.188C446.789 114.803 446.38 113.801 446.092 113.164L447.459 112.546L448.825 111.929C449.149 112.645 449.583 113.711 450.122 115.108L448.723 115.648ZM447.459 112.546L446.093 113.165L445.674 112.242L447.04 111.623L448.406 111.004L448.825 111.928L447.459 112.546ZM447.04 111.623L445.667 112.226L445.627 112.135L447 111.532L448.373 110.928L448.413 111.02L447.04 111.623Z" fill="black"/>
</svg>
