<svg width="848" height="1243" viewBox="0 0 848 1243" fill="none" xmlns="http://www.w3.org/2000/svg">
<g filter="url(#filter0_f_92_312)">
<path d="M308.343 127.95C469.799 124.668 577.154 208.38 657.934 481.008C738.713 753.636 762.327 1111.94 600.871 1115.22C439.414 1118.5 243.044 900.156 162.264 627.528C81.4849 354.9 146.887 131.231 308.343 127.95Z" fill="url(#paint0_linear_92_312)" fill-opacity="0.8"/>
</g>
<g filter="url(#filter1_f_92_312)">
<path d="M320.297 204.511C451.174 197.026 471.836 309.585 561.722 540.534C651.609 771.483 776.683 1033.37 645.806 1040.85C514.929 1048.34 335.964 867.182 246.078 636.233C156.191 405.285 189.42 211.996 320.297 204.511Z" fill="white" fill-opacity="0.76"/>
</g>
<defs>
<filter id="filter0_f_92_312" x="0.344894" y="0.557424" width="847.634" height="1242" filterUnits="userSpaceOnUse" color-interpolation-filters="sRGB">
<feFlood flood-opacity="0" result="BackgroundImageFix"/>
<feBlend mode="normal" in="SourceGraphic" in2="BackgroundImageFix" result="shape"/>
<feGaussianBlur stdDeviation="63.65" result="effect1_foregroundBlur_92_312"/>
</filter>
<filter id="filter1_f_92_312" x="68.2432" y="76.8607" width="761.461" height="1091.51" filterUnits="userSpaceOnUse" color-interpolation-filters="sRGB">
<feFlood flood-opacity="0" result="BackgroundImageFix"/>
<feBlend mode="normal" in="SourceGraphic" in2="BackgroundImageFix" result="shape"/>
<feGaussianBlur stdDeviation="63.65" result="effect1_foregroundBlur_92_312"/>
</filter>
<linearGradient id="paint0_linear_92_312" x1="135.988" y1="300.186" x2="433.277" y2="988.466" gradientUnits="userSpaceOnUse">
<stop stop-color="#7300FF"/>
<stop offset="1" stop-color="#FF0084"/>
</linearGradient>
</defs>
</svg>
