<svg width="25" height="25" viewBox="0 0 25 25" fill="none" xmlns="http://www.w3.org/2000/svg">
<rect x="0.428711" y="0.500977" width="24.3571" height="24.3571" rx="12.1786" fill="white"/>
<path d="M12.6069 6.59082C15.0394 6.59082 16.2563 6.59127 17.1323 7.1709C17.5232 7.42963 17.858 7.76436 18.1167 8.15527C18.6963 9.03123 18.6968 10.2475 18.6968 12.6797C18.6968 15.1121 18.6963 16.3291 18.1167 17.2051C17.858 17.596 17.5232 17.9307 17.1323 18.1895C16.2563 18.7691 15.0394 18.7695 12.6069 18.7695C10.1748 18.7695 8.95847 18.769 8.08252 18.1895C7.69161 17.9307 7.35688 17.596 7.09814 17.2051C6.51852 16.3291 6.51807 15.1121 6.51807 12.6797C6.51807 10.2475 6.51855 9.03123 7.09814 8.15527C7.35687 7.76435 7.6916 7.42962 8.08252 7.1709C8.95847 6.59131 10.1748 6.59082 12.6069 6.59082ZM12.6069 9.52734C10.8661 9.52751 9.45474 10.9388 9.45459 12.6797C9.45459 14.4207 10.866 15.8319 12.6069 15.832C14.348 15.832 15.7593 14.4208 15.7593 12.6797C15.7591 10.9387 14.3479 9.52734 12.6069 9.52734ZM12.6069 10.5938C13.7589 10.5938 14.6927 11.5278 14.6929 12.6797C14.6929 13.8317 13.759 14.7656 12.6069 14.7656C11.4551 14.7655 10.521 13.8316 10.521 12.6797C10.5211 11.5279 11.4551 10.5939 12.6069 10.5938ZM15.8843 8.62891C15.4752 8.62891 15.1431 8.96102 15.1431 9.37012C15.1433 9.779 15.4753 10.1104 15.8843 10.1104C16.2932 10.1103 16.6243 9.77899 16.6245 9.37012C16.6245 8.96103 16.2934 8.62893 15.8843 8.62891Z" fill="#04051B"/>
</svg>
