<svg width="1440" height="860" viewBox="0 0 1440 860" fill="none" xmlns="http://www.w3.org/2000/svg">
<g clip-path="url(#clip0_73_2468)">
<g opacity="0.63" filter="url(#filter0_f_73_2468)">
<ellipse cx="720.616" cy="210.5" rx="333.5" ry="123.5" fill="url(#paint0_linear_73_2468)"/>
</g>
<g style="mix-blend-mode:overlay">
<circle cx="228.804" cy="602.591" r="4.60917" transform="rotate(-76.2652 228.804 602.591)" fill="#0C5FF4"/>
</g>
<circle cx="315.164" cy="550.148" r="2.30577" transform="rotate(-76.2652 315.164 550.148)" fill="#0C5FF4"/>
<g style="mix-blend-mode:overlay">
<circle cx="153.584" cy="434.737" r="2.30577" transform="rotate(-76.2652 153.584 434.737)" fill="#0C5FF4"/>
</g>
<circle cx="563.594" cy="368.708" r="2.30577" transform="rotate(-76.2652 563.594 368.708)" fill="#0C5FF4"/>
<g style="mix-blend-mode:overlay">
<circle cx="457.649" cy="433.142" r="2.30577" transform="rotate(-76.2652 457.649 433.142)" fill="#0C5FF4"/>
</g>
<g style="mix-blend-mode:overlay">
<circle cx="344.226" cy="441.006" r="4.60917" transform="rotate(-76.2652 344.226 441.006)" fill="#0C5FF4"/>
</g>
<circle cx="241.339" cy="425.366" r="4.60917" transform="rotate(-76.2652 241.339 425.366)" fill="#0C5FF4"/>
<g style="mix-blend-mode:overlay">
<circle cx="465.4" cy="314.036" r="4.60917" transform="rotate(-76.2652 465.4 314.036)" fill="#0C5FF4"/>
</g>
<g style="mix-blend-mode:overlay">
<circle cx="422.624" cy="576.41" r="2.30577" transform="rotate(-76.2652 422.624 576.41)" fill="#0C5FF4"/>
</g>
<circle cx="349.894" cy="370.503" r="2.30577" transform="rotate(-76.2652 349.894 370.503)" fill="#0C5FF4"/>
<g style="mix-blend-mode:overlay">
<circle cx="243.128" cy="456.628" r="2.30577" transform="rotate(-76.2652 243.128 456.628)" fill="#0C5FF4"/>
</g>
<g style="mix-blend-mode:overlay">
<circle cx="510.467" cy="580.602" r="4.67294" transform="rotate(-9.69464 510.467 580.602)" fill="#0C5FF4"/>
</g>
<g style="mix-blend-mode:overlay">
<circle cx="594.083" cy="639.812" r="2.33768" transform="rotate(-9.69464 594.083 639.812)" fill="#0C5FF4"/>
</g>
<g style="mix-blend-mode:overlay">
<circle cx="636.298" cy="442.959" r="2.33768" transform="rotate(-9.69464 636.298 442.959)" fill="#0C5FF4"/>
</g>
<g style="mix-blend-mode:overlay">
<circle cx="845.718" cy="558.888" r="2.33768" transform="rotate(-9.69464 845.718 558.888)" fill="#0C5FF4"/>
</g>
<circle cx="760.362" cy="725.171" r="2.33768" transform="rotate(-9.69464 760.362 725.171)" fill="#0C5FF4"/>
<g style="mix-blend-mode:overlay">
<circle cx="707.31" cy="622.832" r="4.67294" transform="rotate(-9.69464 707.31 622.832)" fill="#0C5FF4"/>
</g>
<g style="mix-blend-mode:overlay">
<circle cx="792.674" cy="456.542" r="4.67294" transform="rotate(-9.69464 792.674 456.542)" fill="#0C5FF4"/>
</g>
<circle cx="874.271" cy="684.373" r="4.67294" transform="rotate(-9.69464 874.271 684.373)" fill="#0C5FF4"/>
<circle cx="612.96" cy="750.347" r="2.33768" transform="rotate(-9.69464 612.96 750.347)" fill="#0C5FF4"/>
<circle cx="720.357" cy="713.042" r="2.33768" transform="rotate(-9.69464 720.357 713.042)" fill="#0C5FF4"/>
<g style="mix-blend-mode:overlay">
<circle cx="753.13" cy="460.929" r="2.33768" transform="rotate(-9.69464 753.13 460.929)" fill="#0C5FF4"/>
</g>
<g style="mix-blend-mode:overlay">
<circle cx="652.032" cy="535.088" r="2.33768" transform="rotate(-9.69464 652.032 535.088)" fill="#0C5FF4"/>
</g>
<circle cx="981.172" cy="779.999" r="2.55102" transform="rotate(-71.272 981.172 779.999)" fill="#0C5FF4"/>
<g style="mix-blend-mode:overlay">
<circle cx="1201.21" cy="639.223" r="2.55102" transform="rotate(-71.272 1201.21 639.223)" fill="#0C5FF4"/>
</g>
<g style="mix-blend-mode:overlay">
<circle cx="1336.47" cy="677.006" r="5.0994" transform="rotate(-71.272 1336.47 677.006)" fill="#0C5FF4"/>
</g>
<circle cx="1059.1" cy="677.196" r="2.55102" transform="rotate(-71.272 1059.1 677.196)" fill="#0C5FF4"/>
<g style="mix-blend-mode:overlay">
<circle cx="399.49" cy="771.725" r="5.65275" transform="rotate(-130.143 399.49 771.725)" fill="#0C5FF4"/>
</g>
<g opacity="0.6" filter="url(#filter1_f_73_2468)">
<ellipse cx="711.616" cy="380.5" rx="333.5" ry="123.5" fill="#367BF6"/>
</g>
<g opacity="0.6" filter="url(#filter2_f_73_2468)">
<ellipse cx="711.616" cy="660.5" rx="333.5" ry="123.5" fill="#367BF6"/>
</g>
<g filter="url(#filter3_f_73_2468)">
<path d="M-53.8427 9.95009C-215.299 6.66837 -322.654 90.3802 -403.433 363.008C-484.213 635.636 -507.827 993.941 -346.371 997.223C-184.914 1000.5 11.4567 782.157 92.2361 509.529C173.015 236.901 107.614 13.2318 -53.8427 9.95009Z" fill="url(#paint1_linear_73_2468)" fill-opacity="0.8"/>
</g>
<g filter="url(#filter4_f_73_2468)">
<path d="M1493.84 9.95009C1655.3 6.66837 1762.65 90.3802 1843.43 363.008C1924.21 635.636 1947.83 993.941 1786.37 997.223C1624.91 1000.5 1428.54 782.157 1347.76 509.529C1266.98 236.901 1332.39 13.2318 1493.84 9.95009Z" fill="url(#paint2_linear_73_2468)" fill-opacity="0.8"/>
</g>
</g>
<defs>
<filter id="filter0_f_73_2468" x="-12.8838" y="-313" width="1467" height="1047" filterUnits="userSpaceOnUse" color-interpolation-filters="sRGB">
<feFlood flood-opacity="0" result="BackgroundImageFix"/>
<feBlend mode="normal" in="SourceGraphic" in2="BackgroundImageFix" result="shape"/>
<feGaussianBlur stdDeviation="200" result="effect1_foregroundBlur_73_2468"/>
</filter>
<filter id="filter1_f_73_2468" x="-421.884" y="-543" width="2267" height="1847" filterUnits="userSpaceOnUse" color-interpolation-filters="sRGB">
<feFlood flood-opacity="0" result="BackgroundImageFix"/>
<feBlend mode="normal" in="SourceGraphic" in2="BackgroundImageFix" result="shape"/>
<feGaussianBlur stdDeviation="400" result="effect1_foregroundBlur_73_2468"/>
</filter>
<filter id="filter2_f_73_2468" x="-421.884" y="-263" width="2267" height="1847" filterUnits="userSpaceOnUse" color-interpolation-filters="sRGB">
<feFlood flood-opacity="0" result="BackgroundImageFix"/>
<feBlend mode="normal" in="SourceGraphic" in2="BackgroundImageFix" result="shape"/>
<feGaussianBlur stdDeviation="400" result="effect1_foregroundBlur_73_2468"/>
</filter>
<filter id="filter3_f_73_2468" x="-848.479" y="-372.442" width="1357.63" height="1752" filterUnits="userSpaceOnUse" color-interpolation-filters="sRGB">
<feFlood flood-opacity="0" result="BackgroundImageFix"/>
<feBlend mode="normal" in="SourceGraphic" in2="BackgroundImageFix" result="shape"/>
<feGaussianBlur stdDeviation="191.15" result="effect1_foregroundBlur_73_2468"/>
</filter>
<filter id="filter4_f_73_2468" x="930.845" y="-372.442" width="1357.63" height="1752" filterUnits="userSpaceOnUse" color-interpolation-filters="sRGB">
<feFlood flood-opacity="0" result="BackgroundImageFix"/>
<feBlend mode="normal" in="SourceGraphic" in2="BackgroundImageFix" result="shape"/>
<feGaussianBlur stdDeviation="191.15" result="effect1_foregroundBlur_73_2468"/>
</filter>
<linearGradient id="paint0_linear_73_2468" x1="405.247" y1="193.55" x2="992.714" y2="426.495" gradientUnits="userSpaceOnUse">
<stop stop-color="#46ACFF"/>
<stop offset="0.248357" stop-color="#553997"/>
<stop offset="0.557692" stop-color="#C80EAA"/>
<stop offset="0.793269" stop-color="#AC2723"/>
<stop offset="1" stop-color="#DB6C3D"/>
</linearGradient>
<linearGradient id="paint1_linear_73_2468" x1="118.512" y1="182.186" x2="-178.777" y2="870.466" gradientUnits="userSpaceOnUse">
<stop stop-color="#7300FF"/>
<stop offset="1" stop-color="#FF0084"/>
</linearGradient>
<linearGradient id="paint2_linear_73_2468" x1="1321.49" y1="182.186" x2="1618.78" y2="870.466" gradientUnits="userSpaceOnUse">
<stop stop-color="#7300FF"/>
<stop offset="1" stop-color="#FF0084"/>
</linearGradient>
<clipPath id="clip0_73_2468">
<rect width="1440" height="860" fill="white"/>
</clipPath>
</defs>
</svg>
