<svg width="1440" height="860" viewBox="0 0 1440 860" fill="none" xmlns="http://www.w3.org/2000/svg">
<g clip-path="url(#clip0_73_1912)">
<rect width="1440" height="860" fill="#080716"/>
<g filter="url(#filter0_f_73_1912)">
<path d="M1521.34 14.9496C1682.8 11.6679 1790.15 95.3797 1870.93 368.008C1951.71 640.636 1975.33 998.941 1813.87 1002.22C1652.41 1005.5 1456.04 787.156 1375.26 514.528C1294.48 241.9 1359.89 18.2313 1521.34 14.9496Z" fill="url(#paint0_linear_73_1912)" fill-opacity="0.8"/>
</g>
<g filter="url(#filter1_f_73_1912)">
<path d="M1533.3 91.5108C1664.17 84.0258 1684.84 196.585 1774.72 427.534C1864.61 658.483 1989.68 920.366 1858.81 927.851C1727.93 935.336 1548.96 754.182 1459.08 523.233C1369.19 292.285 1402.42 98.9958 1533.3 91.5108Z" fill="white" fill-opacity="0.76"/>
</g>
<g filter="url(#filter2_f_73_1912)">
<path d="M-80.9587 9.9496C-242.415 6.66788 -349.77 90.3797 -430.549 363.008C-511.329 635.636 -534.943 993.941 -373.486 997.223C-212.03 1000.5 -15.6592 782.156 65.1201 509.528C145.899 236.9 80.4977 13.2313 -80.9587 9.9496Z" fill="url(#paint1_linear_73_1912)" fill-opacity="0.8"/>
</g>
<g filter="url(#filter3_f_73_1912)">
<path d="M-92.9131 86.5108C-223.79 79.0258 -244.451 191.585 -334.338 422.534C-424.225 653.483 -549.299 915.366 -418.422 922.851C-287.545 930.336 -108.58 749.182 -18.6934 518.233C71.1933 287.285 37.964 93.9958 -92.9131 86.5108Z" fill="white" fill-opacity="0.76"/>
</g>
<g filter="url(#filter4_f_73_1912)">
<path d="M919.041 -346.05C757.585 -349.332 650.23 -265.62 569.45 7.00763C488.671 279.636 465.057 637.941 626.513 641.223C787.97 644.504 984.341 426.156 1065.12 153.528C1145.9 -119.1 1080.5 -342.769 919.041 -346.05Z" fill="url(#paint2_linear_73_1912)" fill-opacity="0.8"/>
</g>
</g>
<defs>
<filter id="filter0_f_73_1912" x="1213.34" y="-112.443" width="847.634" height="1242" filterUnits="userSpaceOnUse" color-interpolation-filters="sRGB">
<feFlood flood-opacity="0" result="BackgroundImageFix"/>
<feBlend mode="normal" in="SourceGraphic" in2="BackgroundImageFix" result="shape"/>
<feGaussianBlur stdDeviation="63.65" result="effect1_foregroundBlur_73_1912"/>
</filter>
<filter id="filter1_f_73_1912" x="1281.24" y="-36.1393" width="761.461" height="1091.51" filterUnits="userSpaceOnUse" color-interpolation-filters="sRGB">
<feFlood flood-opacity="0" result="BackgroundImageFix"/>
<feBlend mode="normal" in="SourceGraphic" in2="BackgroundImageFix" result="shape"/>
<feGaussianBlur stdDeviation="63.65" result="effect1_foregroundBlur_73_1912"/>
</filter>
<filter id="filter2_f_73_1912" x="-620.595" y="-117.443" width="847.634" height="1242" filterUnits="userSpaceOnUse" color-interpolation-filters="sRGB">
<feFlood flood-opacity="0" result="BackgroundImageFix"/>
<feBlend mode="normal" in="SourceGraphic" in2="BackgroundImageFix" result="shape"/>
<feGaussianBlur stdDeviation="63.65" result="effect1_foregroundBlur_73_1912"/>
</filter>
<filter id="filter3_f_73_1912" x="-602.32" y="-41.1393" width="761.461" height="1091.51" filterUnits="userSpaceOnUse" color-interpolation-filters="sRGB">
<feFlood flood-opacity="0" result="BackgroundImageFix"/>
<feBlend mode="normal" in="SourceGraphic" in2="BackgroundImageFix" result="shape"/>
<feGaussianBlur stdDeviation="63.65" result="effect1_foregroundBlur_73_1912"/>
</filter>
<filter id="filter4_f_73_1912" x="124.405" y="-728.443" width="1357.63" height="1752" filterUnits="userSpaceOnUse" color-interpolation-filters="sRGB">
<feFlood flood-opacity="0" result="BackgroundImageFix"/>
<feBlend mode="normal" in="SourceGraphic" in2="BackgroundImageFix" result="shape"/>
<feGaussianBlur stdDeviation="191.15" result="effect1_foregroundBlur_73_1912"/>
</filter>
<linearGradient id="paint0_linear_73_1912" x1="1348.99" y1="187.186" x2="1646.28" y2="875.466" gradientUnits="userSpaceOnUse">
<stop stop-color="#7300FF"/>
<stop offset="1" stop-color="#FF0084"/>
</linearGradient>
<linearGradient id="paint1_linear_73_1912" x1="91.3959" y1="182.186" x2="-205.893" y2="870.466" gradientUnits="userSpaceOnUse">
<stop stop-color="#7300FF"/>
<stop offset="1" stop-color="#FF0084"/>
</linearGradient>
<linearGradient id="paint2_linear_73_1912" x1="1091.4" y1="-173.814" x2="794.107" y2="514.466" gradientUnits="userSpaceOnUse">
<stop stop-color="#7300FF"/>
<stop offset="1" stop-color="#FF0084"/>
</linearGradient>
<clipPath id="clip0_73_1912">
<rect width="1440" height="860" fill="white"/>
</clipPath>
</defs>
</svg>
