<svg width="25" height="25" viewBox="0 0 25 25" fill="none" xmlns="http://www.w3.org/2000/svg">
<rect x="0.643066" y="0.500977" width="24.3571" height="24.3571" rx="12.1786" fill="white"/>
<path d="M6.73242 8.2272C6.73242 7.83666 6.86957 7.51448 7.14386 7.26065C7.41815 7.0068 7.77474 6.87988 8.2136 6.87988C8.64463 6.87988 8.99337 7.00484 9.25983 7.25479C9.53412 7.51254 9.67127 7.84838 9.67127 8.26235C9.67127 8.63725 9.53804 8.94967 9.27158 9.19961C8.9973 9.45736 8.63679 9.58623 8.19009 9.58623H8.17833C7.7473 9.58623 7.39856 9.45736 7.1321 9.19961C6.86565 8.94186 6.73242 8.61772 6.73242 8.2272ZM6.88524 18.4785V10.6524H9.49494V18.4785H6.88524ZM10.9408 18.4785H13.5505V14.1085C13.5505 13.8352 13.5819 13.6243 13.6446 13.4759C13.7543 13.2103 13.9208 12.9858 14.1442 12.8022C14.3675 12.6187 14.6477 12.5269 14.9847 12.5269C15.8624 12.5269 16.3013 13.1166 16.3013 14.296V18.4785H18.911V13.9914C18.911 12.8354 18.6367 11.9587 18.0881 11.3612C17.5395 10.7637 16.8146 10.4649 15.9134 10.4649C14.9024 10.4649 14.1148 10.8984 13.5505 11.7654V11.7888H13.5388L13.5505 11.7654V10.6524H10.9408C10.9565 10.9023 10.9644 11.6794 10.9644 12.9838C10.9644 14.2882 10.9565 16.1197 10.9408 18.4785Z" fill="#04051B"/>
</svg>
