<svg width="198" height="63" viewBox="0 0 198 63" fill="none" xmlns="http://www.w3.org/2000/svg">
<path d="M38.643 12.5735C39.0956 12.2987 39.5935 12.853 39.2732 13.2748L28.6542 27.2606L27.0242 26.3887L34.8483 17.1805C34.971 17.036 34.9666 16.8227 34.838 16.6833C34.7094 16.5441 34.4971 16.5226 34.3433 16.6334L23.3651 24.5396C23.262 24.6139 23.2035 24.7354 23.2097 24.8624C23.216 24.9893 23.2861 25.1045 23.396 25.1683L26.2492 26.8245C26.2529 26.8267 26.2567 26.8288 26.2606 26.8309L29.3038 28.4586L36.5632 32.769C37.6669 33.4245 37.6787 35.0176 36.5853 35.6908L13.236 50.0499C12.7907 50.3248 12.2896 49.7898 12.5923 49.3636L22.1027 35.9562L23.367 36.6232L15.7976 46.3638C15.6813 46.5135 15.695 46.7265 15.8295 46.86C15.9641 46.9936 16.1772 47.0057 16.326 46.8884L27.0229 38.4509C27.1204 38.3739 27.1735 38.2537 27.1647 38.1298C27.1559 38.006 27.0863 37.8944 26.9789 37.8321L24.1257 36.1758C24.1214 36.1733 24.1169 36.1709 24.1125 36.1685L21.7471 34.9207L13.8343 30.5997C12.6792 29.9691 12.6424 28.3231 13.7681 27.6411L38.643 12.5735Z" fill="white"/>
<path d="M38.643 12.5735C39.0956 12.2987 39.5935 12.853 39.2732 13.2748L28.6542 27.2606L27.0242 26.3887L34.8483 17.1805C34.971 17.036 34.9666 16.8227 34.838 16.6833C34.7094 16.5441 34.4971 16.5226 34.3433 16.6334L23.3651 24.5396C23.262 24.6139 23.2035 24.7354 23.2097 24.8624C23.216 24.9893 23.2861 25.1045 23.396 25.1683L26.2492 26.8245C26.2529 26.8267 26.2567 26.8288 26.2606 26.8309L29.3038 28.4586L36.5632 32.769C37.6669 33.4245 37.6787 35.0176 36.5853 35.6908L13.236 50.0499C12.7907 50.3248 12.2896 49.7898 12.5923 49.3636L22.1027 35.9562L23.367 36.6232L15.7976 46.3638C15.6813 46.5135 15.695 46.7265 15.8295 46.86C15.9641 46.9936 16.1772 47.0057 16.326 46.8884L27.0229 38.4509C27.1204 38.3739 27.1735 38.2537 27.1647 38.1298C27.1559 38.006 27.0863 37.8944 26.9789 37.8321L24.1257 36.1758C24.1214 36.1733 24.1169 36.1709 24.1125 36.1685L21.7471 34.9207L13.8343 30.5997C12.6792 29.9691 12.6424 28.3231 13.7681 27.6411L38.643 12.5735Z" fill="url(#paint0_linear_106_3864)"/>
<path d="M62.1267 26.8133H48.2329C47.291 26.8133 46.5254 27.579 46.5253 28.5208C46.5253 29.4627 47.291 30.2284 48.2329 30.2284H58.2508C60.3776 30.2284 62.1266 31.957 62.1267 34.1043C62.1267 36.2324 60.3789 37.9802 58.2508 37.9802H44.375V35.8119H58.2508C59.1927 35.8119 59.9584 35.0462 59.9584 34.1043C59.9584 33.1624 59.1927 32.3968 58.2508 32.3968H48.2329C46.1036 32.3968 44.375 30.6656 44.375 28.5208C44.375 26.3953 46.1023 24.645 48.2329 24.645H62.1267V26.8133Z" fill="white"/>
<path d="M66.667 32.0218C66.667 34.1126 68.3663 35.8119 70.4572 35.8119H76.3099C78.4008 35.8119 80.1 34.1126 80.1001 32.0218V24.645H82.2683V32.0218C82.2683 35.2988 79.587 37.9802 76.3099 37.9802H70.4572C67.1785 37.9802 64.5167 35.2973 64.5167 32.0218V24.645H66.667V32.0218Z" fill="white"/>
<path fill-rule="evenodd" clip-rule="evenodd" d="M140.469 24.645C143.191 24.645 145.386 26.8605 145.386 29.5622C145.386 31.611 144.135 33.3536 142.363 34.0929L145.852 37.9802H142.851L139.709 34.4793H128.744V37.9622H126.593V24.645H140.469ZM128.744 32.3289H140.469C141.987 32.3289 143.236 31.0951 143.236 29.5622C143.236 28.0486 141.988 26.8133 140.469 26.8133H128.744V32.3289Z" fill="white"/>
<path fill-rule="evenodd" clip-rule="evenodd" d="M99.0947 24.645C101.816 24.645 104.012 26.8605 104.012 29.5622C104.012 32.2827 101.815 34.4793 99.0947 34.4793H87.3693V37.9622H85.2189V24.645H99.0947ZM87.3693 32.3289H99.0947C100.613 32.3289 101.862 31.0951 101.862 29.5622C101.862 28.0486 100.614 26.8133 99.0947 26.8133H87.3693V32.3289Z" fill="white"/>
<path d="M123.886 26.8133H109.993C109.051 26.8133 108.285 27.579 108.285 28.5208C108.285 29.4627 109.051 30.2284 109.993 30.2284H123.886V32.3968H109.993C109.051 32.3968 108.285 33.1624 108.285 34.1043C108.285 35.0462 109.051 35.8119 109.993 35.8119H123.886V37.9622H109.993C107.865 37.9622 106.135 36.2324 106.135 34.1043C106.135 33.0002 106.586 32.0146 107.316 31.3067C106.584 30.6091 106.135 29.6229 106.135 28.5208C106.135 26.3953 107.862 24.645 109.993 24.645H123.886V26.8133Z" fill="white"/>
<path fill-rule="evenodd" clip-rule="evenodd" d="M176.128 29.2645L181.113 24.279H185.21L178.176 31.3126L185.21 38.3462H181.114L176.128 33.3768L171.142 38.3462H155.617C151.737 38.3462 148.602 35.2083 148.602 31.3126C148.602 27.4362 151.735 24.279 155.617 24.279H171.142L176.128 29.2645ZM167.103 27.1972H155.617C153.339 27.1972 151.502 29.0338 151.502 31.3126C151.502 33.6111 153.34 35.4458 155.617 35.4458H167.103V38.2889L174.08 31.3126L167.103 24.3363V27.1972ZM150.754 31.4392C150.755 31.5019 150.758 31.5643 150.762 31.6263C150.76 31.5951 150.758 31.5638 150.757 31.5325L150.754 31.4392ZM155.492 26.4488C155.485 26.449 155.478 26.4493 155.471 26.4495C155.498 26.4487 155.526 26.448 155.554 26.4477L155.492 26.4488Z" fill="url(#paint1_linear_106_3864)"/>
<defs>
<linearGradient id="paint0_linear_106_3864" x1="35.9688" y1="13.5627" x2="13.875" y2="50.1252" gradientUnits="userSpaceOnUse">
<stop stop-color="#45ACFF"/>
<stop offset="0.288904" stop-color="#5D3698"/>
<stop offset="0.498231" stop-color="#C70EAA"/>
<stop offset="0.680063" stop-color="#AD2923"/>
<stop offset="1" stop-color="#D7683B"/>
</linearGradient>
<linearGradient id="paint1_linear_106_3864" x1="149.597" y1="30.3472" x2="182.155" y2="42.7885" gradientUnits="userSpaceOnUse">
<stop stop-color="#46ACFF"/>
<stop offset="0.248357" stop-color="#553997"/>
<stop offset="0.557692" stop-color="#C80EAA"/>
<stop offset="0.793269" stop-color="#AC2723"/>
<stop offset="1" stop-color="#DB6C3D"/>
</linearGradient>
</defs>
</svg>
