<svg width="192" height="60" viewBox="0 0 192 60" fill="none" xmlns="http://www.w3.org/2000/svg">
<rect width="191.613" height="60" rx="6.77419" fill="#EBE9E9"/>
<path d="M37.537 11.8653C37.975 11.5993 38.4569 12.1358 38.1468 12.544L27.8704 26.0787L26.2929 25.2349L33.8647 16.3237C33.9834 16.1839 33.9791 15.9774 33.8547 15.8426C33.7303 15.7078 33.5249 15.687 33.376 15.7942L22.7519 23.4454C22.6521 23.5173 22.5955 23.6349 22.6015 23.7578C22.6076 23.8806 22.6755 23.9921 22.7818 24.0538L25.543 25.6566C25.5466 25.6587 25.5503 25.6608 25.554 25.6628L28.499 27.238L35.5243 31.4093C36.5924 32.0437 36.6038 33.5855 35.5457 34.2369L12.9496 48.1328C12.5187 48.3988 12.0337 47.8811 12.3267 47.4686L21.5303 34.4938L22.7538 35.1392L15.4285 44.5656C15.316 44.7105 15.3292 44.9166 15.4594 45.0458C15.5896 45.1751 15.7958 45.1868 15.9399 45.0732L26.2917 36.9079C26.386 36.8335 26.4375 36.7171 26.429 36.5972C26.4205 36.4774 26.3531 36.3695 26.2492 36.3091L23.488 34.7063C23.4838 34.7039 23.4795 34.7015 23.4752 34.6992L21.1861 33.4916L13.5285 29.31C12.4107 28.6998 12.3751 27.1068 13.4645 26.4469L37.537 11.8653Z" fill="white"/>
<path d="M37.537 11.8653C37.975 11.5993 38.4569 12.1358 38.1468 12.544L27.8704 26.0787L26.2929 25.2349L33.8647 16.3237C33.9834 16.1839 33.9791 15.9774 33.8547 15.8426C33.7303 15.7078 33.5249 15.687 33.376 15.7942L22.7519 23.4454C22.6521 23.5173 22.5955 23.6349 22.6015 23.7578C22.6076 23.8806 22.6755 23.9921 22.7818 24.0538L25.543 25.6566C25.5466 25.6587 25.5503 25.6608 25.554 25.6628L28.499 27.238L35.5243 31.4093C36.5924 32.0437 36.6038 33.5855 35.5457 34.2369L12.9496 48.1328C12.5187 48.3988 12.0337 47.8811 12.3267 47.4686L21.5303 34.4938L22.7538 35.1392L15.4285 44.5656C15.316 44.7105 15.3292 44.9166 15.4594 45.0458C15.5896 45.1751 15.7958 45.1868 15.9399 45.0732L26.2917 36.9079C26.386 36.8335 26.4375 36.7171 26.429 36.5972C26.4205 36.4774 26.3531 36.3695 26.2492 36.3091L23.488 34.7063C23.4838 34.7039 23.4795 34.7015 23.4752 34.6992L21.1861 33.4916L13.5285 29.31C12.4107 28.6998 12.3751 27.1068 13.4645 26.4469L37.537 11.8653Z" fill="#7300FF"/>
<path d="M60.263 25.6458H46.8174C45.9059 25.6458 45.165 26.3868 45.1649 27.2983C45.1649 28.2098 45.9059 28.9508 46.8174 28.9508H56.5122C58.5704 28.9508 60.263 30.6236 60.263 32.7016C60.263 34.7611 58.5716 36.4525 56.5122 36.4525H43.084V34.3541H56.5122C57.4237 34.3541 58.1647 33.6131 58.1647 32.7016C58.1647 31.7901 57.4237 31.0492 56.5122 31.0492H46.8174C44.7568 31.0492 43.084 29.3739 43.084 27.2983C43.084 25.2413 44.7556 23.5475 46.8174 23.5475H60.263V25.6458Z" fill="black"/>
<path d="M64.6569 30.6863C64.6569 32.7097 66.3013 34.3541 68.3248 34.3541H73.9887C76.0121 34.3541 77.6566 32.7097 77.6566 30.6863V23.5475H79.7549V30.6863C79.7549 33.8577 77.1601 36.4525 73.9887 36.4525H68.3248C65.1519 36.4525 62.5759 33.8562 62.5759 30.6863V23.5475H64.6569V30.6863Z" fill="black"/>
<path fill-rule="evenodd" clip-rule="evenodd" d="M136.078 23.5475C138.712 23.5475 140.837 25.6916 140.837 28.306C140.837 30.2888 139.626 31.9752 137.911 32.6906L141.287 36.4525H138.383L135.343 33.0645H124.731V36.4352H122.65V23.5475H136.078ZM124.731 30.9836H136.078C137.547 30.9836 138.756 29.7895 138.756 28.306C138.756 26.8413 137.548 25.6458 136.078 25.6458H124.731V30.9836Z" fill="black"/>
<path fill-rule="evenodd" clip-rule="evenodd" d="M96.0386 23.5475C98.6723 23.5475 100.797 25.6916 100.797 28.306C100.797 30.9388 98.6713 33.0645 96.0386 33.0645H84.6913V36.4352H82.6104V23.5475H96.0386ZM84.6913 30.9836H96.0386C97.5074 30.9836 98.7161 29.7895 98.7161 28.306C98.7161 26.8413 97.5088 25.6458 96.0386 25.6458H84.6913V30.9836Z" fill="black"/>
<path d="M120.031 25.6458H106.585C105.674 25.6458 104.933 26.3868 104.933 27.2983C104.933 28.2098 105.674 28.9508 106.585 28.9508H120.031V31.0492H106.585C105.674 31.0492 104.933 31.7901 104.933 32.7016C104.933 33.6131 105.674 34.3541 106.585 34.3541H120.031V36.4352H106.585C104.526 36.4352 102.852 34.7611 102.852 32.7016C102.852 31.6331 103.288 30.6794 103.994 29.9943C103.286 29.3193 102.852 28.3648 102.852 27.2983C102.852 25.2413 104.523 23.5475 106.585 23.5475H120.031V25.6458Z" fill="black"/>
<path fill-rule="evenodd" clip-rule="evenodd" d="M170.587 28.0178L175.412 23.1931H179.376L172.569 29.9999L179.376 36.8066H175.412L170.587 31.9975L165.761 36.8066H150.738C146.983 36.8066 143.949 33.7699 143.949 29.9999C143.949 26.2485 146.981 23.1931 150.738 23.1931H165.762L170.587 28.0178ZM161.854 26.0173H150.738C148.533 26.0173 146.756 27.7946 146.756 29.9999C146.756 32.2242 148.535 33.9998 150.738 33.9998H161.854V36.7511L168.605 29.9999L161.854 23.2486V26.0173ZM146.031 30.1224C146.033 30.1831 146.035 30.2434 146.039 30.3035C146.037 30.2733 146.036 30.243 146.034 30.2127L146.031 30.1224ZM150.616 25.293C150.61 25.2932 150.603 25.2934 150.596 25.2936C150.623 25.2928 150.65 25.2922 150.677 25.2919L150.616 25.293Z" fill="#DB6C3D"/>
</svg>
