<svg width="97" height="97" viewBox="0 0 97 97" fill="none" xmlns="http://www.w3.org/2000/svg">
<path d="M33.5 34C20.6711 46.8289 1 48.5 1 48.5H48.5V1C48.5 1 45.7005 21.7995 33.5 34Z" fill="black" stroke="black" stroke-width="0.475"/>
<path d="M63.5 34C76.3289 46.8289 96 48.5 96 48.5H48.5V1C48.5 1 51.2995 21.7995 63.5 34Z" fill="black" stroke="black" stroke-width="0.475"/>
<path d="M33.5 63C20.6711 50.1711 1 48.5 1 48.5H48.5V96C48.5 96 45.7005 75.2005 33.5 63Z" fill="black" stroke="black" stroke-width="0.475"/>
<path d="M63.5 63C76.3289 50.1711 96 48.5 96 48.5H48.5V96C48.5 96 51.2995 75.2005 63.5 63Z" fill="black" stroke="black" stroke-width="0.475"/>
</svg>
