<svg width="109" height="102" viewBox="0 0 109 102" fill="none" xmlns="http://www.w3.org/2000/svg">
<path d="M26.3158 52.7053C16.3228 62.6983 1 64 1 64H38V27C38 27 35.8193 43.2017 26.3158 52.7053Z" fill="black" stroke="black" stroke-width="0.37"/>
<path d="M49.6842 52.7053C59.6772 62.6983 75 64 75 64H38V27C38 27 40.1807 43.2017 49.6842 52.7053Z" fill="black" stroke="black" stroke-width="0.37"/>
<path d="M26.3158 75.2947C16.3228 65.3017 1 64 1 64H38V101C38 101 35.8193 84.7983 26.3158 75.2947Z" fill="black" stroke="black" stroke-width="0.37"/>
<path d="M49.6842 75.2947C59.6772 65.3017 75 64 75 64H38V101C38 101 40.1807 84.7983 49.6842 75.2947Z" fill="black" stroke="black" stroke-width="0.37"/>
<path d="M74.4474 18.7158C67.5603 25.6029 57 26.5 57 26.5H82.5V1C82.5 1 80.9971 12.1661 74.4474 18.7158Z" fill="black" stroke="black" stroke-width="0.255"/>
<path d="M90.5526 18.7158C97.4397 25.6029 108 26.5 108 26.5H82.5V1C82.5 1 84.0029 12.1661 90.5526 18.7158Z" fill="black" stroke="black" stroke-width="0.255"/>
<path d="M74.4474 34.2842C67.5603 27.3971 57 26.5 57 26.5H82.5V52C82.5 52 80.9971 40.8339 74.4474 34.2842Z" fill="black" stroke="black" stroke-width="0.255"/>
<path d="M90.5526 34.2842C97.4397 27.3971 108 26.5 108 26.5H82.5V52C82.5 52 84.0029 40.8339 90.5526 34.2842Z" fill="black" stroke="black" stroke-width="0.255"/>
</svg>
