<svg width="20" height="21" viewBox="0 0 20 21" fill="none" xmlns="http://www.w3.org/2000/svg">
<path d="M15.1972 2.82553H4.80287C4.5631 2.83211 4.32825 2.89503 4.1173 3.00919C3.90636 3.12335 3.72523 3.28555 3.58858 3.48267L0.988584 7.08267C0.795522 7.35549 0.699105 7.68498 0.714633 8.01884C0.730162 8.3527 0.856746 8.67181 1.0743 8.92553L8.87144 17.9112C9.00481 18.0836 9.17587 18.223 9.37149 18.319C9.56712 18.415 9.78212 18.4649 10 18.4649C10.2179 18.4649 10.4329 18.415 10.6285 18.319C10.8242 18.223 10.9952 18.0836 11.1286 17.9112L18.9243 8.92553C19.1418 8.67181 19.2684 8.3527 19.284 8.01884C19.2995 7.68498 19.2031 7.35549 19.01 7.08267L16.4114 3.48267C16.2748 3.28555 16.0937 3.12335 15.8827 3.00919C15.6718 2.89503 15.4369 2.83211 15.1972 2.82553Z" stroke="white" stroke-width="1.2" stroke-linecap="round" stroke-linejoin="round"/>
<path d="M9.25714 2.81088L5.77143 8.21088L10 18.4252L14.2571 8.21088L10.7857 2.81088M0.742859 8.21088H19.2571" stroke="white" stroke-width="1.2" stroke-linecap="round" stroke-linejoin="round"/>
</svg>
