<svg width="12" height="19" viewBox="0 0 12 19" fill="none" xmlns="http://www.w3.org/2000/svg">
<path d="M11.6731 0.660399C11.8753 0.528925 12.0976 0.794107 11.9545 0.9959L7.21305 7.68677L6.48521 7.26965L9.97875 2.8644C10.0336 2.79529 10.0316 2.69321 9.97418 2.62657C9.91677 2.55994 9.82197 2.54967 9.75329 2.60266L4.85139 6.38503C4.80535 6.42056 4.77923 6.47871 4.78201 6.53944C4.7848 6.60016 4.81611 6.65526 4.86518 6.68578L6.13918 7.47814C6.14085 7.47918 6.14254 7.4802 6.14425 7.48118L7.50307 8.25989L10.7445 10.322C11.2373 10.6356 11.2426 11.3978 10.7544 11.7198L0.32864 18.5892C0.129818 18.7207 -0.0939393 18.4648 0.041231 18.2609L4.28772 11.8468L4.85224 12.1659L1.47242 16.8258C1.42048 16.8974 1.42661 16.9993 1.48667 17.0632C1.54674 17.1271 1.64189 17.1329 1.70835 17.0767L6.48463 13.0402C6.52816 13.0034 6.5519 12.9459 6.54797 12.8866C6.54404 12.8274 6.51295 12.774 6.46501 12.7442L5.19102 11.9518C5.18909 11.9506 5.18709 11.9495 5.18511 11.9483L4.12895 11.3514L0.595773 9.28418C0.0800014 8.98254 0.0635776 8.19505 0.566231 7.8688L11.6731 0.660399Z" fill="white"/>
<path d="M11.6731 0.660399C11.8753 0.528925 12.0976 0.794107 11.9545 0.9959L7.21305 7.68677L6.48521 7.26965L9.97875 2.8644C10.0336 2.79529 10.0316 2.69321 9.97418 2.62657C9.91677 2.55994 9.82197 2.54967 9.75329 2.60266L4.85139 6.38503C4.80535 6.42056 4.77923 6.47871 4.78201 6.53944C4.7848 6.60016 4.81611 6.65526 4.86518 6.68578L6.13918 7.47814C6.14085 7.47918 6.14254 7.4802 6.14425 7.48118L7.50307 8.25989L10.7445 10.322C11.2373 10.6356 11.2426 11.3978 10.7544 11.7198L0.32864 18.5892C0.129818 18.7207 -0.0939393 18.4648 0.041231 18.2609L4.28772 11.8468L4.85224 12.1659L1.47242 16.8258C1.42048 16.8974 1.42661 16.9993 1.48667 17.0632C1.54674 17.1271 1.64189 17.1329 1.70835 17.0767L6.48463 13.0402C6.52816 13.0034 6.5519 12.9459 6.54797 12.8866C6.54404 12.8274 6.51295 12.774 6.46501 12.7442L5.19102 11.9518C5.18909 11.9506 5.18709 11.9495 5.18511 11.9483L4.12895 11.3514L0.595773 9.28418C0.0800014 8.98254 0.0635776 8.19505 0.566231 7.8688L11.6731 0.660399Z" fill="url(#paint0_linear_188_4631)"/>
<defs>
<linearGradient id="paint0_linear_188_4631" x1="10.4791" y1="1.13363" x2="-0.414489" y2="17.9594" gradientUnits="userSpaceOnUse">
<stop stop-color="#45ACFF"/>
<stop offset="0.288904" stop-color="#5D3698"/>
<stop offset="0.498231" stop-color="#C70EAA"/>
<stop offset="0.680063" stop-color="#AD2923"/>
<stop offset="1" stop-color="#D7683B"/>
</linearGradient>
</defs>
</svg>
