<svg width="2435" height="2127" viewBox="0 0 2435 2127" fill="none" xmlns="http://www.w3.org/2000/svg">
<g opacity="0.63" filter="url(#filter0_f_118_336)">
<ellipse cx="1310.5" cy="753.499" rx="333.5" ry="123.5" fill="url(#paint0_linear_118_336)"/>
</g>
<g style="mix-blend-mode:overlay">
<circle cx="818.688" cy="1145.59" r="4.60917" transform="rotate(-76.2652 818.688 1145.59)" fill="#0C5FF4"/>
</g>
<circle cx="905.048" cy="1093.15" r="2.30577" transform="rotate(-76.2652 905.048 1093.15)" fill="#0C5FF4"/>
<g style="mix-blend-mode:overlay">
<circle cx="743.468" cy="977.736" r="2.30577" transform="rotate(-76.2652 743.468 977.736)" fill="#0C5FF4"/>
</g>
<circle cx="1153.49" cy="911.707" r="2.30577" transform="rotate(-76.2652 1153.49 911.707)" fill="#0C5FF4"/>
<g style="mix-blend-mode:overlay">
<circle cx="1047.54" cy="976.142" r="2.30577" transform="rotate(-76.2652 1047.54 976.142)" fill="#0C5FF4"/>
</g>
<g style="mix-blend-mode:overlay">
<circle cx="934.11" cy="984.005" r="4.60917" transform="rotate(-76.2652 934.11 984.005)" fill="#0C5FF4"/>
</g>
<circle cx="831.223" cy="968.366" r="4.60917" transform="rotate(-76.2652 831.223 968.366)" fill="#0C5FF4"/>
<g style="mix-blend-mode:overlay">
<circle cx="1055.29" cy="857.035" r="4.60917" transform="rotate(-76.2652 1055.29 857.035)" fill="#0C5FF4"/>
</g>
<g style="mix-blend-mode:overlay">
<circle cx="1012.51" cy="1119.41" r="2.30577" transform="rotate(-76.2652 1012.51 1119.41)" fill="#0C5FF4"/>
</g>
<circle cx="939.779" cy="913.503" r="2.30577" transform="rotate(-76.2652 939.779 913.503)" fill="#0C5FF4"/>
<g style="mix-blend-mode:overlay">
<circle cx="833.013" cy="999.627" r="2.30577" transform="rotate(-76.2652 833.013 999.627)" fill="#0C5FF4"/>
</g>
<g style="mix-blend-mode:overlay">
<circle cx="1100.36" cy="1123.6" r="4.67294" transform="rotate(-9.69464 1100.36 1123.6)" fill="#0C5FF4"/>
</g>
<g style="mix-blend-mode:overlay">
<circle cx="1183.98" cy="1182.81" r="2.33768" transform="rotate(-9.69464 1183.98 1182.81)" fill="#0C5FF4"/>
</g>
<g style="mix-blend-mode:overlay">
<circle cx="1226.19" cy="985.958" r="2.33768" transform="rotate(-9.69464 1226.19 985.958)" fill="#0C5FF4"/>
</g>
<g style="mix-blend-mode:overlay">
<circle cx="1435.61" cy="1101.89" r="2.33768" transform="rotate(-9.69464 1435.61 1101.89)" fill="#0C5FF4"/>
</g>
<circle cx="1350.26" cy="1268.17" r="2.33768" transform="rotate(-9.69464 1350.26 1268.17)" fill="#0C5FF4"/>
<g style="mix-blend-mode:overlay">
<circle cx="1297.2" cy="1165.83" r="4.67294" transform="rotate(-9.69464 1297.2 1165.83)" fill="#0C5FF4"/>
</g>
<g style="mix-blend-mode:overlay">
<circle cx="1382.57" cy="999.541" r="4.67294" transform="rotate(-9.69464 1382.57 999.541)" fill="#0C5FF4"/>
</g>
<circle cx="1464.16" cy="1227.37" r="4.67294" transform="rotate(-9.69464 1464.16 1227.37)" fill="#0C5FF4"/>
<circle cx="1202.85" cy="1293.35" r="2.33768" transform="rotate(-9.69464 1202.85 1293.35)" fill="#0C5FF4"/>
<circle cx="1310.25" cy="1256.04" r="2.33768" transform="rotate(-9.69464 1310.25 1256.04)" fill="#0C5FF4"/>
<g style="mix-blend-mode:overlay">
<circle cx="1343.02" cy="1003.93" r="2.33768" transform="rotate(-9.69464 1343.02 1003.93)" fill="#0C5FF4"/>
</g>
<g style="mix-blend-mode:overlay">
<circle cx="1241.93" cy="1078.09" r="2.33768" transform="rotate(-9.69464 1241.93 1078.09)" fill="#0C5FF4"/>
</g>
<circle cx="1571.07" cy="1323" r="2.55102" transform="rotate(-71.272 1571.07 1323)" fill="#0C5FF4"/>
<g style="mix-blend-mode:overlay">
<circle cx="1791.1" cy="1182.22" r="2.55102" transform="rotate(-71.272 1791.1 1182.22)" fill="#0C5FF4"/>
</g>
<g style="mix-blend-mode:overlay">
<circle cx="1926.37" cy="1220.01" r="5.0994" transform="rotate(-71.272 1926.37 1220.01)" fill="#0C5FF4"/>
</g>
<circle cx="1648.99" cy="1220.2" r="2.55102" transform="rotate(-71.272 1648.99 1220.2)" fill="#0C5FF4"/>
<g style="mix-blend-mode:overlay">
<circle cx="989.374" cy="1314.72" r="5.65275" transform="rotate(-130.143 989.374 1314.72)" fill="#0C5FF4"/>
</g>
<g opacity="0.6" filter="url(#filter1_f_118_336)">
<ellipse cx="1301.5" cy="923.499" rx="333.5" ry="123.5" fill="#367BF6"/>
</g>
<g opacity="0.6" filter="url(#filter2_f_118_336)">
<ellipse cx="1301.5" cy="1203.5" rx="333.5" ry="123.5" fill="#367BF6"/>
</g>
<defs>
<filter id="filter0_f_118_336" x="577" y="229.999" width="1467" height="1047" filterUnits="userSpaceOnUse" color-interpolation-filters="sRGB">
<feFlood flood-opacity="0" result="BackgroundImageFix"/>
<feBlend mode="normal" in="SourceGraphic" in2="BackgroundImageFix" result="shape"/>
<feGaussianBlur stdDeviation="200" result="effect1_foregroundBlur_118_336"/>
</filter>
<filter id="filter1_f_118_336" x="168" y="-0.0012207" width="2267" height="1847" filterUnits="userSpaceOnUse" color-interpolation-filters="sRGB">
<feFlood flood-opacity="0" result="BackgroundImageFix"/>
<feBlend mode="normal" in="SourceGraphic" in2="BackgroundImageFix" result="shape"/>
<feGaussianBlur stdDeviation="400" result="effect1_foregroundBlur_118_336"/>
</filter>
<filter id="filter2_f_118_336" x="168" y="280" width="2267" height="1847" filterUnits="userSpaceOnUse" color-interpolation-filters="sRGB">
<feFlood flood-opacity="0" result="BackgroundImageFix"/>
<feBlend mode="normal" in="SourceGraphic" in2="BackgroundImageFix" result="shape"/>
<feGaussianBlur stdDeviation="400" result="effect1_foregroundBlur_118_336"/>
</filter>
<linearGradient id="paint0_linear_118_336" x1="995.131" y1="736.548" x2="1582.6" y2="969.494" gradientUnits="userSpaceOnUse">
<stop stop-color="#46ACFF"/>
<stop offset="0.248357" stop-color="#553997"/>
<stop offset="0.557692" stop-color="#C80EAA"/>
<stop offset="0.793269" stop-color="#AC2723"/>
<stop offset="1" stop-color="#DB6C3D"/>
</linearGradient>
</defs>
</svg>
