<svg width="56" height="57" viewBox="0 0 56 57" fill="none" xmlns="http://www.w3.org/2000/svg">
<path d="M14.0002 51.6208C12.7168 51.6208 11.6182 51.1638 10.7043 50.2499C9.79044 49.336 9.3335 48.2374 9.3335 46.9541V18.9541C9.3335 17.6708 9.79044 16.5722 10.7043 15.6583C11.6182 14.7444 12.7168 14.2874 14.0002 14.2874H18.6668C18.6668 11.7208 19.5807 9.52355 21.4085 7.69577C23.2363 5.86799 25.4335 4.9541 28.0002 4.9541C30.5668 4.9541 32.764 5.86799 34.5918 7.69577C36.4196 9.52355 37.3335 11.7208 37.3335 14.2874H42.0002C43.2835 14.2874 44.3821 14.7444 45.296 15.6583C46.2099 16.5722 46.6668 17.6708 46.6668 18.9541V46.9541C46.6668 48.2374 46.2099 49.336 45.296 50.2499C44.3821 51.1638 43.2835 51.6208 42.0002 51.6208H14.0002ZM14.0002 46.9541H42.0002V18.9541H37.3335V23.6208C37.3335 24.2819 37.1099 24.836 36.6627 25.2833C36.2154 25.7305 35.6613 25.9541 35.0002 25.9541C34.3391 25.9541 33.7849 25.7305 33.3377 25.2833C32.8904 24.836 32.6668 24.2819 32.6668 23.6208V18.9541H23.3335V23.6208C23.3335 24.2819 23.1099 24.836 22.6627 25.2833C22.2154 25.7305 21.6613 25.9541 21.0002 25.9541C20.3391 25.9541 19.7849 25.7305 19.3377 25.2833C18.8904 24.836 18.6668 24.2819 18.6668 23.6208V18.9541H14.0002V46.9541ZM23.3335 14.2874H32.6668C32.6668 13.0041 32.2099 11.9055 31.296 10.9916C30.3821 10.0777 29.2835 9.62077 28.0002 9.62077C26.7168 9.62077 25.6182 10.0777 24.7043 10.9916C23.7904 11.9055 23.3335 13.0041 23.3335 14.2874Z" fill="black"/>
</svg>
