<svg width="56" height="57" viewBox="0 0 56 57" fill="none" xmlns="http://www.w3.org/2000/svg">
<path d="M15.1666 46.9544C11.6277 46.9544 8.60409 45.7294 6.09575 43.2794C3.58742 40.8294 2.33325 37.835 2.33325 34.2961C2.33325 31.2628 3.24714 28.56 5.07492 26.1878C6.9027 23.8155 9.29436 22.2989 12.2499 21.6378C13.2221 18.06 15.1666 15.1628 18.0833 12.9461C20.9999 10.7294 24.3055 9.62109 27.9999 9.62109C32.5499 9.62109 36.4096 11.2058 39.5791 14.3753C42.7485 17.5447 44.3333 21.4044 44.3333 25.9544C47.0166 26.2655 49.243 27.4225 51.0124 29.4253C52.7819 31.428 53.6666 33.7711 53.6666 36.4544C53.6666 39.3711 52.6458 41.8503 50.6041 43.8919C48.5624 45.9336 46.0833 46.9544 43.1666 46.9544H30.3333C29.0499 46.9544 27.9513 46.4975 27.0374 45.5836C26.1235 44.6697 25.6666 43.5711 25.6666 42.2878V30.2711L21.9333 33.8878L18.6666 30.6211L27.9999 21.2878L37.3333 30.6211L34.0666 33.8878L30.3333 30.2711V42.2878H43.1666C44.7999 42.2878 46.1805 41.7239 47.3083 40.5961C48.436 39.4683 48.9999 38.0878 48.9999 36.4544C48.9999 34.8211 48.436 33.4405 47.3083 32.3128C46.1805 31.185 44.7999 30.6211 43.1666 30.6211H39.6666V25.9544C39.6666 22.7266 38.5291 19.9753 36.2541 17.7003C33.9791 15.4253 31.2277 14.2878 27.9999 14.2878C24.7721 14.2878 22.0208 15.4253 19.7458 17.7003C17.4708 19.9753 16.3333 22.7266 16.3333 25.9544H15.1666C12.911 25.9544 10.986 26.7516 9.39159 28.3461C7.79714 29.9405 6.99992 31.8655 6.99992 34.1211C6.99992 36.3766 7.79714 38.3016 9.39159 39.8961C10.986 41.4905 12.911 42.2878 15.1666 42.2878H20.9999V46.9544H15.1666Z" fill="black"/>
</svg>
