<svg width="65" height="65" viewBox="0 0 65 65" fill="none" xmlns="http://www.w3.org/2000/svg">
<path d="M11.333 56.5V43.1667C11.333 41.7 11.8552 40.4444 12.8997 39.4C13.9441 38.3556 15.1997 37.8333 16.6663 37.8333H48.6663C50.133 37.8333 51.3886 38.3556 52.433 39.4C53.4775 40.4444 53.9997 41.7 53.9997 43.1667V56.5H11.333ZM24.6663 35.1667C20.9775 35.1667 17.833 33.8667 15.233 31.2667C12.633 28.6667 11.333 25.5222 11.333 21.8333C11.333 18.1444 12.633 15 15.233 12.4C17.833 9.8 20.9775 8.5 24.6663 8.5H40.6663C44.3552 8.5 47.4997 9.8 50.0997 12.4C52.6997 15 53.9997 18.1444 53.9997 21.8333C53.9997 25.5222 52.6997 28.6667 50.0997 31.2667C47.4997 33.8667 44.3552 35.1667 40.6663 35.1667H24.6663ZM16.6663 51.1667H48.6663V43.1667H16.6663V51.1667ZM24.6663 29.8333H40.6663C42.8886 29.8333 44.7775 29.0556 46.333 27.5C47.8886 25.9444 48.6663 24.0556 48.6663 21.8333C48.6663 19.6111 47.8886 17.7222 46.333 16.1667C44.7775 14.6111 42.8886 13.8333 40.6663 13.8333H24.6663C22.4441 13.8333 20.5552 14.6111 18.9997 16.1667C17.4441 17.7222 16.6663 19.6111 16.6663 21.8333C16.6663 24.0556 17.4441 25.9444 18.9997 27.5C20.5552 29.0556 22.4441 29.8333 24.6663 29.8333ZM24.6663 24.5C25.4219 24.5 26.0552 24.2444 26.5663 23.7333C27.0775 23.2222 27.333 22.5889 27.333 21.8333C27.333 21.0778 27.0775 20.4444 26.5663 19.9333C26.0552 19.4222 25.4219 19.1667 24.6663 19.1667C23.9108 19.1667 23.2775 19.4222 22.7663 19.9333C22.2552 20.4444 21.9997 21.0778 21.9997 21.8333C21.9997 22.5889 22.2552 23.2222 22.7663 23.7333C23.2775 24.2444 23.9108 24.5 24.6663 24.5ZM40.6663 24.5C41.4219 24.5 42.0552 24.2444 42.5663 23.7333C43.0775 23.2222 43.333 22.5889 43.333 21.8333C43.333 21.0778 43.0775 20.4444 42.5663 19.9333C42.0552 19.4222 41.4219 19.1667 40.6663 19.1667C39.9108 19.1667 39.2775 19.4222 38.7663 19.9333C38.2552 20.4444 37.9997 21.0778 37.9997 21.8333C37.9997 22.5889 38.2552 23.2222 38.7663 23.7333C39.2775 24.2444 39.9108 24.5 40.6663 24.5Z" fill="black"/>
</svg>
