<svg width="64" height="65" viewBox="0 0 64 65" fill="none" xmlns="http://www.w3.org/2000/svg">
<path d="M45.3333 43.1667C43.1111 43.1667 41.2222 42.3889 39.6667 40.8333C38.1111 39.2778 37.3333 37.3889 37.3333 35.1667C37.3333 32.9444 38.1111 31.0556 39.6667 29.5C41.2222 27.9444 43.1111 27.1667 45.3333 27.1667C47.5556 27.1667 49.4444 27.9444 51 29.5C52.5556 31.0556 53.3333 32.9444 53.3333 35.1667C53.3333 37.3889 52.5556 39.2778 51 40.8333C49.4444 42.3889 47.5556 43.1667 45.3333 43.1667ZM45.3333 37.8333C46.0889 37.8333 46.7222 37.5778 47.2333 37.0667C47.7444 36.5556 48 35.9222 48 35.1667C48 34.4111 47.7444 33.7778 47.2333 33.2667C46.7222 32.7556 46.0889 32.5 45.3333 32.5C44.5778 32.5 43.9444 32.7556 43.4333 33.2667C42.9222 33.7778 42.6667 34.4111 42.6667 35.1667C42.6667 35.9222 42.9222 36.5556 43.4333 37.0667C43.9444 37.5778 44.5778 37.8333 45.3333 37.8333ZM29.3333 61.8333V54.1C29.3333 53.1667 29.5556 52.2889 30 51.4667C30.4444 50.6444 31.0667 49.9889 31.8667 49.5C33.2889 48.6556 34.7889 47.9556 36.3667 47.4C37.9444 46.8444 39.5556 46.4333 41.2 46.1667L45.3333 51.1667L49.4667 46.1667C51.1111 46.4333 52.7111 46.8444 54.2667 47.4C55.8222 47.9556 57.3111 48.6556 58.7333 49.5C59.5333 49.9889 60.1667 50.6444 60.6333 51.4667C61.1 52.2889 61.3333 53.1667 61.3333 54.1V61.8333H29.3333ZM34.6 56.5H42.8L39.2 52.1C38.4 52.3222 37.6222 52.6111 36.8667 52.9667C36.1111 53.3222 35.3556 53.7 34.6 54.1V56.5ZM47.8667 56.5H56V54.1C55.2889 53.6556 54.5556 53.2667 53.8 52.9333C53.0444 52.6 52.2667 52.3222 51.4667 52.1L47.8667 56.5ZM13.3333 56.5C11.8667 56.5 10.6111 55.9778 9.56667 54.9333C8.52222 53.8889 8 52.6333 8 51.1667V13.8333C8 12.3667 8.52222 11.1111 9.56667 10.0667C10.6111 9.02222 11.8667 8.5 13.3333 8.5H50.6667C52.1333 8.5 53.3889 9.02222 54.4333 10.0667C55.4778 11.1111 56 12.3667 56 13.8333V27.1667C55.2889 26.2778 54.5111 25.4333 53.6667 24.6333C52.8222 23.8333 51.8222 23.3 50.6667 23.0333V13.8333H13.3333V51.1667H24.4C24.2667 51.6556 24.1667 52.1444 24.1 52.6333C24.0333 53.1222 24 53.6111 24 54.1V56.5H13.3333ZM18.6667 24.5H37.3333C38.4889 23.6111 39.7556 22.9444 41.1333 22.5C42.5111 22.0556 43.9111 21.8333 45.3333 21.8333V19.1667H18.6667V24.5ZM18.6667 35.1667H32C32 34.2333 32.1 33.3222 32.3 32.4333C32.5 31.5444 32.7778 30.6778 33.1333 29.8333H18.6667V35.1667ZM18.6667 45.8333H27.8667C28.3556 45.4333 28.8778 45.0778 29.4333 44.7667C29.9889 44.4556 30.5556 44.1667 31.1333 43.9V40.5H18.6667V45.8333ZM13.3333 51.1667V13.8333V22.9667V21.8333V51.1667Z" fill="black"/>
</svg>
