<svg width="64" height="65" viewBox="0 0 64 65" fill="none" xmlns="http://www.w3.org/2000/svg">
<path d="M32 56.5C25.2889 56.5 19.6111 55.4667 14.9667 53.4C10.3222 51.3333 8 48.8111 8 45.8333V19.1667C8 16.2333 10.3444 13.7222 15.0333 11.6333C19.7222 9.54444 25.3778 8.5 32 8.5C38.6222 8.5 44.2778 9.54444 48.9667 11.6333C53.6556 13.7222 56 16.2333 56 19.1667V45.8333C56 48.8111 53.6778 51.3333 49.0333 53.4C44.3889 55.4667 38.7111 56.5 32 56.5ZM32 24.5667C35.9556 24.5667 39.9333 24 43.9333 22.8667C47.9333 21.7333 50.1778 20.5222 50.6667 19.2333C50.1778 17.9444 47.9444 16.7222 43.9667 15.5667C39.9889 14.4111 36 13.8333 32 13.8333C27.9556 13.8333 23.9889 14.4 20.1 15.5333C16.2111 16.6667 13.9556 17.9 13.3333 19.2333C13.9556 20.5667 16.2111 21.7889 20.1 22.9C23.9889 24.0111 27.9556 24.5667 32 24.5667ZM32 37.8333C33.8667 37.8333 35.6667 37.7444 37.4 37.5667C39.1333 37.3889 40.7889 37.1333 42.3667 36.8C43.9444 36.4667 45.4333 36.0556 46.8333 35.5667C48.2333 35.0778 49.5111 34.5222 50.6667 33.9V25.9C49.5111 26.5222 48.2333 27.0778 46.8333 27.5667C45.4333 28.0556 43.9444 28.4667 42.3667 28.8C40.7889 29.1333 39.1333 29.3889 37.4 29.5667C35.6667 29.7444 33.8667 29.8333 32 29.8333C30.1333 29.8333 28.3111 29.7444 26.5333 29.5667C24.7556 29.3889 23.0778 29.1333 21.5 28.8C19.9222 28.4667 18.4444 28.0556 17.0667 27.5667C15.6889 27.0778 14.4444 26.5222 13.3333 25.9V33.9C14.4444 34.5222 15.6889 35.0778 17.0667 35.5667C18.4444 36.0556 19.9222 36.4667 21.5 36.8C23.0778 37.1333 24.7556 37.3889 26.5333 37.5667C28.3111 37.7444 30.1333 37.8333 32 37.8333ZM32 51.1667C34.0444 51.1667 36.1222 51.0111 38.2333 50.7C40.3444 50.3889 42.2889 49.9778 44.0667 49.4667C45.8444 48.9556 47.3333 48.3778 48.5333 47.7333C49.7333 47.0889 50.4444 46.4333 50.6667 45.7667V39.2333C49.5111 39.8556 48.2333 40.4111 46.8333 40.9C45.4333 41.3889 43.9444 41.8 42.3667 42.1333C40.7889 42.4667 39.1333 42.7222 37.4 42.9C35.6667 43.0778 33.8667 43.1667 32 43.1667C30.1333 43.1667 28.3111 43.0778 26.5333 42.9C24.7556 42.7222 23.0778 42.4667 21.5 42.1333C19.9222 41.8 18.4444 41.3889 17.0667 40.9C15.6889 40.4111 14.4444 39.8556 13.3333 39.2333V45.8333C13.5556 46.5 14.2556 47.1444 15.4333 47.7667C16.6111 48.3889 18.0889 48.9556 19.8667 49.4667C21.6444 49.9778 23.6 50.3889 25.7333 50.7C27.8667 51.0111 29.9556 51.1667 32 51.1667Z" fill="black"/>
</svg>
