<svg width="65" height="65" viewBox="0 0 65 65" fill="none" xmlns="http://www.w3.org/2000/svg">
<path d="M24.333 56.5H13.6663C12.1997 56.5 10.9441 55.9778 9.89967 54.9333C8.85523 53.8889 8.33301 52.6333 8.33301 51.1667V32.5C8.33301 29.1667 8.96634 26.0444 10.233 23.1333C11.4997 20.2222 13.2108 17.6889 15.3663 15.5333C17.5219 13.3778 20.0552 11.6667 22.9663 10.4C25.8775 9.13333 28.9997 8.5 32.333 8.5C35.6663 8.5 38.7886 9.13333 41.6997 10.4C44.6108 11.6667 47.1441 13.3778 49.2997 15.5333C51.4552 17.6889 53.1663 20.2222 54.433 23.1333C55.6997 26.0444 56.333 29.1667 56.333 32.5V51.1667C56.333 52.6333 55.8108 53.8889 54.7663 54.9333C53.7219 55.9778 52.4663 56.5 50.9997 56.5H40.333V35.1667H50.9997V32.5C50.9997 27.3 49.1886 22.8889 45.5663 19.2667C41.9441 15.6444 37.533 13.8333 32.333 13.8333C27.133 13.8333 22.7219 15.6444 19.0997 19.2667C15.4775 22.8889 13.6663 27.3 13.6663 32.5V35.1667H24.333V56.5ZM18.9997 40.5H13.6663V51.1667H18.9997V40.5ZM45.6663 40.5V51.1667H50.9997V40.5H45.6663Z" fill="black"/>
</svg>
