<svg width="65" height="65" viewBox="0 0 65 65" fill="none" xmlns="http://www.w3.org/2000/svg">
<path d="M26.9998 59.1666C25.5332 59.1666 24.2776 58.6444 23.2332 57.5999C22.1887 56.5555 21.6665 55.2999 21.6665 53.8332V43.1666H10.9998C9.53317 43.1666 8.27761 42.6444 7.23317 41.5999C6.18873 40.5555 5.6665 39.2999 5.6665 37.8333V11.1666C5.6665 9.69992 6.18873 8.44436 7.23317 7.39992C8.27761 6.35547 9.53317 5.83325 10.9998 5.83325H37.6665C39.1332 5.83325 40.3887 6.35547 41.4332 7.39992C42.4776 8.44436 42.9998 9.69992 42.9998 11.1666V21.8333H53.6665C55.1332 21.8333 56.3887 22.3555 57.4332 23.3999C58.4776 24.4444 58.9998 25.6999 58.9998 27.1666V53.8332C58.9998 55.2999 58.4776 56.5555 57.4332 57.5999C56.3887 58.6444 55.1332 59.1666 53.6665 59.1666H26.9998ZM26.9998 53.8332H53.6665V27.1666H37.6665V11.1666H10.9998V37.8333H26.9998V53.8332Z" fill="black"/>
</svg>
