<svg width="65" height="65" viewBox="0 0 65 65" fill="none" xmlns="http://www.w3.org/2000/svg">
<path d="M21.4667 43.1666H25.7333L27.8667 37.0333H37.6L39.7333 43.1666H43.8667L34.8 19.1666H30.5333L21.4667 43.1666ZM29.0667 33.5666L32.5333 23.5666H32.8L36.2667 33.5666H29.0667ZM32.6667 59.1666C28.9778 59.1666 25.5111 58.4666 22.2667 57.0666C19.0222 55.6666 16.2 53.7666 13.8 51.3666C11.4 48.9666 9.5 46.1444 8.1 42.8999C6.7 39.6555 6 36.1888 6 32.4999H11.3333C11.3333 35.4333 11.8889 38.1999 13 40.7999C14.1111 43.3999 15.6333 45.6666 17.5667 47.5999C19.5 49.5332 21.7667 51.0666 24.3667 52.1999C26.9667 53.3332 29.7333 53.8999 32.6667 53.8999C38.6222 53.8999 43.6667 51.8332 47.8 47.6999C51.9333 43.5666 54 38.5221 54 32.5666C54 26.611 51.9333 21.5666 47.8 17.4333C43.6667 13.2999 38.6222 11.2333 32.6667 11.2333C28.7111 11.2333 25.1222 12.1999 21.9 14.1333C18.6778 16.0666 16.1333 18.6333 14.2667 21.8333H22V27.1666H6V11.1666H11.3333V16.4999C13.7778 13.2555 16.8444 10.6666 20.5333 8.73325C24.2222 6.79992 28.2667 5.83325 32.6667 5.83325C36.3556 5.83325 39.8222 6.53325 43.0667 7.93325C46.3111 9.33325 49.1333 11.2333 51.5333 13.6333C53.9333 16.0333 55.8333 18.8555 57.2333 22.0999C58.6333 25.3444 59.3333 28.811 59.3333 32.4999C59.3333 36.1888 58.6333 39.6555 57.2333 42.8999C55.8333 46.1444 53.9333 48.9666 51.5333 51.3666C49.1333 53.7666 46.3111 55.6666 43.0667 57.0666C39.8222 58.4666 36.3556 59.1666 32.6667 59.1666Z" fill="black"/>
</svg>
